<?xml version="1.0" encoding="UTF-8" standalone="no"?>
<svg
   id="Capa_1"
   viewBox="0 0 201.95386 89.438311"
   version="1.1"
   sodipodi:docname="logo_terracota_blanco.svg"
   inkscape:version="1.2.1 (9c6d41e410, 2022-07-14)"
   width="201.95386"
   height="89.438309"
   xml:space="preserve"
   xmlns:inkscape="http://www.inkscape.org/namespaces/inkscape"
   xmlns:sodipodi="http://sodipodi.sourceforge.net/DTD/sodipodi-0.dtd"
   xmlns="http://www.w3.org/2000/svg"
   xmlns:svg="http://www.w3.org/2000/svg"><sodipodi:namedview
     id="namedview233"
     pagecolor="#ffffff"
     bordercolor="#000000"
     borderopacity="0.25"
     inkscape:showpageshadow="2"
     inkscape:pageopacity="0.0"
     inkscape:pagecheckerboard="0"
     inkscape:deskcolor="#d1d1d1"
     showgrid="false"
     inkscape:zoom="2.8519973"
     inkscape:cx="148.31711"
     inkscape:cy="85.02813"
     inkscape:window-width="1920"
     inkscape:window-height="1001"
     inkscape:window-x="2391"
     inkscape:window-y="-9"
     inkscape:window-maximized="1"
     inkscape:current-layer="Capa_1" /><defs
     id="defs194"><style
       id="style189">.cls-1{fill:#7b6756;}.cls-2{fill:#993921;}.cls-3{clip-path:url(#clippath);}.cls-4{fill:#d35842;}.cls-5{fill:none;}.cls-6{fill:#d6a64b;}</style><style
       id="style189-8">.cls-1{fill:#7b6756;}.cls-2{fill:#993921;}.cls-3{clip-path:url(#clippath);}.cls-4{fill:#d35842;}.cls-5{fill:none;}.cls-6{fill:#d6a64b;}</style><clipPath
       id="clippath-0"><path
         class="cls-5"
         d="m 168.88,13.5 c -3.45,3.65 -12.3,13.55 -14.56,23.12 -3.21,13.62 3.03,29.24 3.03,29.24 0,0 9.28,-5.13 15.09,-18.03 4.36,-9.68 1.16,-25.89 1.49,-32.22 0.23,-4.34 0.79,-5.46 0.13,-5.97 -0.13,-0.1 -0.28,-0.15 -0.44,-0.15 -0.97,0 -2.53,1.65 -4.74,4"
         id="path191-9" /></clipPath><clipPath
       clipPathUnits="userSpaceOnUse"
       id="clipPath5544"><g
         id="g5548"><path
           class="cls-5"
           d="m 155.48,3.9946407 c -3.45,3.65 -12.3,13.5500003 -14.56,23.1200003 -3.21,13.62 3.03,29.24 3.03,29.24 0,0 9.28,-5.13 15.09,-18.03 4.36,-9.68 1.16,-25.89 1.49,-32.2200003 0.23,-4.34 0.79,-5.46 0.13,-5.97 -0.13,-0.1 -0.28,-0.15 -0.44,-0.15 -0.97,0 -2.53,1.65 -4.74,4"
           id="path5546" /></g></clipPath></defs><path
     id="path198"
     style="fill:#ffffff;fill-opacity:0.997217;stroke:none;stroke-width:0.999997;stroke-opacity:1"
     class="cls-6"
     d="m 118.48828,0.00181651 c -0.71096,-0.05578564 -1.87638,1.17877759 -3.55157,2.95098209 -2.5502,2.6980382 -9.09243,10.0168304 -10.763,17.0908634 -2.37945,10.064671 2.23785,21.605569 2.24067,21.612625 0.001,-0.0079 1.56807,-9.573667 6.88803,-15.891126 1.82483,-2.165534 3.87568,-3.717618 5.87309,-4.862479 0.42061,-6.267346 -0.68252,-13.109532 -0.50675,-16.3819936 0.17001,-3.2080782 0.59199,-4.04388541 0.0967,-4.41347967 -0.0832,-0.06283102 -0.17563,-0.09742285 -0.2772,-0.10539222 z M 106.41438,41.656287 c 0,2e-6 0,0.0015 0,0.0015 v 0.0072 c 0,0 0.0166,-0.0097 0.0173,-0.0101 -6.8e-4,6.4e-5 -0.0171,0.0014 -0.0173,0.0015 z" /><path
     style="display:inline;fill:#ffffff;fill-opacity:0.997217;stroke:none;stroke-width:0.999997;stroke-opacity:1"
     d="m 106.8572,42.026579 c 0,0 1.56708,-9.572501 6.88924,-15.892569 5.22607,-6.201798 12.3149,-7.443636 14.65074,-8.16065 1.50055,-0.458297 2.15104,-0.739189 2.77935,-0.93877 0.5396,-0.170013 0.96833,0.243932 0.59874,0.960946 -1.61882,3.16373 -3.80682,13.179745 -8.51546,17.600097 -5.80264,5.447825 -16.41,6.430946 -16.41,6.430946"
     id="path196-8" /><path
     class="cls-1"
     d="m 163.70825,85.343204 c -1.15314,-0.295676 -1.43403,-0.436122 -1.43403,-0.872244 v -0.01478 c 0,-0.325243 0.29568,-0.583959 0.85746,-0.583959 0.56178,0 1.13835,0.243932 1.7297,0.657878 l 0.76137,-1.101392 c -0.67267,-0.539608 -1.50056,-0.842675 -2.4689,-0.842675 -1.3601,0 -2.32844,0.798324 -2.32844,2.003202 v 0.02218 c 0,1.323149 0.86485,1.692744 2.20278,2.032771 1.10879,0.288283 1.33794,0.473081 1.33794,0.842675 v 0.01478 c 0,0.391771 -0.36221,0.628311 -0.96095,0.628311 -0.76137,0 -1.38968,-0.310459 -1.98842,-0.805716 l -0.86485,1.034865 c 0.79832,0.709621 1.81101,1.064432 2.8237,1.064432 1.43403,0 2.43933,-0.739189 2.43933,-2.062338 v -0.01478 c 0,-1.160527 -0.76137,-1.641 -2.10669,-1.995811 z"
     id="path204"
     style="fill:#ffffff;fill-opacity:0.997217;stroke:none;stroke-width:0.999997;stroke-opacity:1" /><polygon
     class="cls-1"
     points="192.45,128.59 192.45,126.7 196.69,126.7 196.69,124.94 192.45,124.94 192.45,123.11 197.27,123.11 197.27,121.35 190.49,121.35 190.49,130.35 197.34,130.35 197.34,128.59 "
     id="polygon206"
     style="fill:#ffffff;fill-opacity:0.997217;stroke:none;stroke-width:1.35283;stroke-opacity:1"
     transform="matrix(0.73918927,0,0,0.73918927,-9.9051362,-7.0258868)" /><polygon
     class="cls-1"
     points="156.21,121.35 154.07,121.35 151.71,125.16 149.34,121.35 147.21,121.35 147.21,130.35 149.15,130.35 149.15,124.51 151.66,128.32 151.71,128.32 154.24,124.48 154.24,130.35 156.21,130.35 "
     id="polygon208"
     style="fill:#ffffff;fill-opacity:0.997217;stroke:none;stroke-width:1.35283;stroke-opacity:1"
     transform="matrix(0.73918927,0,0,0.73918927,-9.9051362,-7.0258868)" /><path
     class="cls-1"
     d="m 70.341251,82.563852 c -2.054946,0 -3.540717,1.544905 -3.540717,3.43723 v 0.01478 c 0,1.892324 1.470987,3.422446 3.525933,3.422446 2.054946,0 3.540717,-1.544905 3.540717,-3.43723 v -0.02218 c 0,-1.892324 -1.470987,-3.422446 -3.525933,-3.422446 z m 1.995811,3.459406 c 0,1.138351 -0.8205,2.06973 -1.995811,2.06973 -1.175311,0 -2.017987,-0.953555 -2.017987,-2.091906 v -0.02218 c 0,-1.138351 0.8205,-2.06973 1.995811,-2.06973 1.175311,0 2.017987,0.953555 2.017987,2.091906 v 0.01478 z"
     id="path210"
     style="fill:#ffffff;fill-opacity:0.997217;stroke:none;stroke-width:0.999997;stroke-opacity:1" /><polygon
     class="cls-1"
     points="67.9,121.35 67.9,124.91 64.25,124.91 64.25,121.35 62.28,121.35 62.28,130.35 64.25,130.35 64.25,126.74 67.9,126.74 67.9,130.35 69.88,130.35 69.88,121.35 "
     id="polygon212"
     style="fill:#ffffff;fill-opacity:0.997217;stroke:none;stroke-width:1.35283;stroke-opacity:1"
     transform="matrix(0.73918927,0,0,0.73918927,-9.9051362,-7.0258868)" /><path
     class="cls-1"
     d="m 54.212141,51.163092 -0.266108,-3.385486 h -4.945176 v 22.597016 h 5.595662 V 55.169498 c 1.855366,-2.705432 4.117285,-3.466797 6.002217,-3.466797 h 1.071825 v -4.501663 h -0.251325 c -2.956757,0.04435 -5.381297,1.596649 -7.214487,3.962054 z"
     id="path214"
     style="fill:#ffffff;fill-opacity:0.997217;stroke:none;stroke-width:0.999997;stroke-opacity:1" /><path
     class="cls-1"
     d="m 123.74767,66.46431 c -4.13946,0 -6.97055,-2.779351 -6.97055,-7.3845 0,-4.60515 2.735,-7.384501 6.97055,-7.384501 1.84059,0 3.3781,0.524824 4.24295,1.463594 l 3.12677,-3.452013 c -1.70753,-1.485771 -4.39817,-2.476284 -7.75409,-2.476284 -7.88715,0 -12.18184,5.396081 -12.18184,11.849204 0,6.453122 4.39817,11.841812 12.18184,11.841812 3.07502,0 5.94308,-0.923987 7.85758,-2.513244 l -3.11938,-3.452014 c -1.06443,1.034865 -2.77196,1.515338 -4.34643,1.515338 z"
     id="path216"
     style="fill:#ffffff;fill-opacity:0.997217;stroke:none;stroke-width:0.999997;stroke-opacity:1" /><path
     class="cls-1"
     d="m 170.5901,61.083012 v -9.121595 h 5.47 v -4.183811 h -5.47 v -3.466798 c -0.0517,-1.470987 -1.25662,-2.65369 -2.74239,-2.65369 h -2.85327 v 6.120488 h -3.7403 v 4.183811 h 3.7403 v 9.121595 c 0,3.511149 1.23444,5.943082 3.28939,7.473204 2.02538,1.530122 4.84908,2.180608 8.1089,2.128865 V 66.46431 c -1.81101,-0.103486 -3.28939,-0.554392 -4.30208,-1.463594 -0.96094,-0.864852 -1.49316,-2.143649 -1.49316,-3.917704 z"
     id="path218"
     style="fill:#ffffff;fill-opacity:0.997217;stroke:none;stroke-width:0.999997;stroke-opacity:1" /><path
     class="cls-1"
     d="M 9.3359605,61.083012 V 51.961417 H 14.805961 V 47.777606 H 9.3359605 V 44.310808 C 9.2842172,42.839821 8.0793387,41.657118 6.5935683,41.657118 H 3.7402977 v 6.120488 H 0 v 4.183811 h 3.7402977 v 9.121595 c 0,3.511149 1.2344461,5.943082 3.2893923,7.473204 2.0253786,1.530122 4.849082,2.180608 8.108906,2.128865 V 66.46431 C 13.327583,66.360824 11.849204,65.909918 10.836515,65.000716 9.8755686,64.135864 9.3433524,62.857067 9.3433524,61.083012 Z"
     id="path220"
     style="fill:#ffffff;fill-opacity:0.997217;stroke:none;stroke-width:0.999997;stroke-opacity:1" /><path
     class="cls-1"
     d="M 72.337062,51.163092 72.070954,47.777606 H 67.125778 V 70.374622 H 72.72144 V 55.169498 c 1.855368,-2.705432 4.117288,-3.466797 6.00222,-3.466797 h 1.071825 V 47.201038 H 79.54416 c -2.956757,0.04435 -5.381298,1.596649 -7.21449,3.962054 z"
     id="path222"
     style="fill:#ffffff;fill-opacity:0.997217;stroke:none;stroke-width:0.999997;stroke-opacity:1" /><path
     class="cls-1"
     d="m 95.074527,47.230606 c -3.326352,0 -6.830109,0.968337 -9.609461,2.483675 l 1.337933,3.370704 c 1.803622,-0.990514 4.6495,-1.899717 7.229271,-1.899717 3.052852,0 5.943082,1.419244 6.0096,4.53123 v 1.374892 c -1.818397,-0.901811 -4.139451,-1.411851 -6.416154,-1.411851 -4.893433,0 -9.68338,2.321054 -9.68338,7.635825 0,4.95996 4.257731,7.658001 8.663299,7.658001 2.971541,0 5.810027,-1.138352 7.857575,-3.533325 l 0.0591,0.753973 c 0.16262,1.204879 1.21966,2.158433 2.43932,2.173217 h 2.68326 V 55.834769 c 0,-5.928298 -5.11519,-8.618947 -10.570403,-8.611555 z m 4.982133,16.957001 c -1.596646,1.907109 -3.710728,2.601947 -5.898728,2.601947 -2.646297,0 -4.982136,-1.293582 -4.982136,-3.799433 0,-2.698041 2.579771,-3.836393 5.462609,-3.836393 1.966244,0 3.98423,0.510041 5.418255,1.40446 v 3.636811 z"
     id="path224"
     style="fill:#ffffff;fill-opacity:0.997217;stroke:none;stroke-width:0.999997;stroke-opacity:1" /><path
     class="cls-1"
     d="m 191.38349,47.230606 c -3.32635,0 -6.83011,0.968337 -9.60946,2.483675 l 1.33793,3.370704 c 1.80363,-0.990514 4.64951,-1.899717 7.22928,-1.899717 3.05285,0 5.94308,1.419244 6.0096,4.53123 v 1.374892 c -1.8184,-0.901811 -4.13946,-1.411851 -6.41616,-1.411851 -4.89343,0 -9.68338,2.321054 -9.68338,7.635825 0,4.95996 4.25773,7.658001 8.6633,7.658001 2.97154,0 5.81003,-1.138352 7.85758,-3.533325 l 0.0591,0.753973 c 0.16262,1.204879 1.21966,2.158433 2.43932,2.173217 h 2.68326 V 55.834769 c 0,-5.928298 -5.11519,-8.618947 -10.57041,-8.611555 z m 4.98214,16.957001 c -1.59665,1.907109 -3.71073,2.601947 -5.89873,2.601947 -2.6463,0 -4.98214,-1.293582 -4.98214,-3.799433 0,-2.698041 2.57977,-3.836393 5.46261,-3.836393 1.96624,0 3.98423,0.510041 5.41826,1.40446 v 3.636811 z"
     id="path226"
     style="fill:#ffffff;fill-opacity:0.997217;stroke:none;stroke-width:0.999997;stroke-opacity:1" /><path
     class="cls-1"
     d="m 145.92335,47.223214 c -8.1089,0 -12.4849,5.329554 -12.4849,11.849204 0,6.519649 4.376,11.841812 12.4849,11.841812 8.10891,0 12.48491,-5.203893 12.48491,-11.841812 0,-6.63792 -4.50906,-11.849204 -12.48491,-11.849204 z m 0,19.233704 c -4.20598,0 -6.88185,-2.808919 -6.88185,-7.3845 0,-4.575582 2.68326,-7.384501 6.88185,-7.384501 4.1986,0 6.88185,2.661081 6.88185,7.384501 0,4.723419 -2.59455,7.3845 -6.88185,7.3845 z"
     id="path228"
     style="fill:#ffffff;fill-opacity:0.997217;stroke:none;stroke-width:0.999997;stroke-opacity:1" /><path
     class="cls-1"
     d="m 31.600341,47.20843 c -7.842798,0 -11.974866,5.344338 -11.974866,11.83442 0,6.490082 4.272514,11.827028 12.115312,11.827028 3.999014,0 7.244055,-1.190094 9.535542,-3.259824 l -2.372798,-2.794136 c -2.195392,1.300973 -4.819514,1.973636 -7.162744,1.840582 -3.570284,-0.110879 -6.009609,-2.217568 -6.556609,-5.743501 h 17.629665 c 0.162621,-0.887027 0.229148,-1.847973 0.229148,-2.631514 0,-6.652703 -3.969446,-11.073055 -11.435258,-11.073055 z m 6.253542,10.511271 H 25.206354 l 0.01478,-0.310459 c 0.23654,-3.378095 2.417149,-5.987433 6.534433,-5.987433 3.577676,0 5.795244,1.426635 6.076136,4.76777 0.02957,0.243933 0.05174,0.547001 0.05174,0.864852 0,0.214365 -0.0074,0.436122 -0.02218,0.657878 z"
     id="path230"
     style="fill:#ffffff;fill-opacity:0.997217;stroke:none;stroke-width:0.999997;stroke-opacity:1" /></svg>
