<?xml version="1.0" encoding="UTF-8" standalone="no"?>
<!-- Created with Inkscape (http://www.inkscape.org/) -->

<svg
   width="221.53682mm"
   height="160.02493mm"
   viewBox="0 0 221.53682 160.02493"
   version="1.1"
   id="svg5"
   xml:space="preserve"
   inkscape:version="1.2.1 (9c6d41e410, 2022-07-14)"
   sodipodi:docname="logo_joyas_blanco.svg"
   xmlns:inkscape="http://www.inkscape.org/namespaces/inkscape"
   xmlns:sodipodi="http://sodipodi.sourceforge.net/DTD/sodipodi-0.dtd"
   xmlns="http://www.w3.org/2000/svg"
   xmlns:svg="http://www.w3.org/2000/svg"><sodipodi:namedview
     id="namedview7"
     pagecolor="#ffffff"
     bordercolor="#000000"
     borderopacity="0.25"
     inkscape:showpageshadow="2"
     inkscape:pageopacity="0.0"
     inkscape:pagecheckerboard="0"
     inkscape:deskcolor="#d1d1d1"
     inkscape:document-units="mm"
     showgrid="false"
     inkscape:zoom="0.72515432"
     inkscape:cx="168.92956"
     inkscape:cy="390.26176"
     inkscape:window-width="1920"
     inkscape:window-height="1009"
     inkscape:window-x="1072"
     inkscape:window-y="410"
     inkscape:window-maximized="1"
     inkscape:current-layer="svg5" /><defs
     id="defs2"><clipPath
       clipPathUnits="userSpaceOnUse"
       id="clipPath3292"><g
         id="g3298"><g
           id="g3296"
           style="stroke-width:1.33333"
           transform="matrix(0.95485945,0,0,0.95485945,-1628.4421,-1117.3115)"><path
             d="m 1368.2034,1183.0186 h 885.9893 v 1104.4706 h -885.9893 z"
             id="path3294"
             style="stroke-width:1.33333" /></g></g></clipPath><clipPath
       clipPathUnits="userSpaceOnUse"
       id="clipPath3307"><g
         id="g3313"><g
           id="g3311"
           style="stroke-width:1.33333"
           transform="matrix(0.95485945,0,0,0.95485945,-1629.5005,-1117.3115)"><path
             d="m 1368.2034,1183.0186 h 885.9893 v 1104.4706 h -885.9893 z"
             id="path3309"
             style="stroke-width:1.33333" /></g></g></clipPath><clipPath
       clipPathUnits="userSpaceOnUse"
       id="clipPath3322"><g
         id="g3328"><g
           id="g3326"
           style="stroke-width:1.33333"
           transform="matrix(0.95485945,0,0,0.95485945,-1628.9713,-1118.3698)"><path
             d="m 1368.2034,1183.0186 h 885.9893 v 1104.4706 h -885.9893 z"
             id="path3324"
             style="stroke-width:1.33333" /></g></g></clipPath><clipPath
       clipPathUnits="userSpaceOnUse"
       id="clipPath3337"><g
         id="g3343"><g
           id="g3341"
           style="stroke-width:1.33333"
           transform="matrix(0.95485945,0,0,0.95485945,-1629.5005,-1118.3698)"><path
             d="m 1368.2034,1183.0186 h 885.9893 v 1104.4706 h -885.9893 z"
             id="path3339"
             style="stroke-width:1.33333" /></g></g></clipPath><clipPath
       clipPathUnits="userSpaceOnUse"
       id="clipPath3352"><g
         id="g3358"><g
           id="g3356"
           style="stroke-width:1.33333"
           transform="matrix(0.95485945,0,0,0.95485945,-1628.9713,-1117.8407)"><path
             d="m 1368.2034,1183.0186 h 885.9893 v 1104.4706 h -885.9893 z"
             id="path3354"
             style="stroke-width:1.33333" /></g></g></clipPath><clipPath
       clipPathUnits="userSpaceOnUse"
       id="clipPath3367"><g
         id="g3373"><g
           id="g3371"
           style="stroke-width:1.33333"
           transform="matrix(0.95485945,0,0,0.95485945,-1629.5005,-1117.8407)"><path
             d="m 1368.2034,1183.0186 h 885.9893 v 1104.4706 h -885.9893 z"
             id="path3369"
             style="stroke-width:1.33333" /></g></g></clipPath><clipPath
       clipPathUnits="userSpaceOnUse"
       id="clipPath3382"><g
         id="g3388"><g
           id="g3386"
           style="stroke-width:1.33333"
           transform="matrix(0.95485945,0,0,0.95485945,-1628.4421,-1118.3698)"><path
             d="m 1368.2034,1183.0186 h 885.9893 v 1104.4706 h -885.9893 z"
             id="path3384"
             style="stroke-width:1.33333" /></g></g></clipPath><clipPath
       clipPathUnits="userSpaceOnUse"
       id="clipPath3397"><g
         id="g3403"><g
           id="g3401"
           style="stroke-width:1.33333"
           transform="matrix(0.95485945,0,0,0.95485945,-1628.4421,-1117.8407)"><path
             d="m 1368.2034,1183.0186 h 885.9893 v 1104.4706 h -885.9893 z"
             id="path3399"
             style="stroke-width:1.33333" /></g></g></clipPath><clipPath
       clipPathUnits="userSpaceOnUse"
       id="clipPath3418"><g
         id="g3424"><g
           id="g3422"
           style="stroke-width:1.33333"
           transform="matrix(0.95485945,0,0,0.95485945,-1628.9713,-1117.8407)"><path
             d="m 1368.2034,1183.0186 h 885.9893 v 1104.4706 h -885.9893 z"
             id="path3420"
             style="stroke-width:1.33333" /></g></g></clipPath><clipPath
       clipPathUnits="userSpaceOnUse"
       id="clipPath3433"><g
         id="g3439"><g
           id="g3437"
           style="stroke-width:1.33333"
           transform="matrix(0.95485945,0,0,0.95485945,-1629.5004,-1117.3115)"><path
             d="m 1368.2034,1183.0186 h 885.9893 v 1104.4706 h -885.9893 z"
             id="path3435"
             style="stroke-width:1.33333" /></g></g></clipPath><clipPath
       clipPathUnits="userSpaceOnUse"
       id="clipPath3448"><g
         id="g3454"><g
           id="g3452"
           style="stroke-width:1.33333"
           transform="matrix(0.95485945,0,0,0.95485945,-1629.5005,-1117.8407)"><path
             d="m 1368.2034,1183.0186 h 885.9893 v 1104.4706 h -885.9893 z"
             id="path3450"
             style="stroke-width:1.33333" /></g></g></clipPath><clipPath
       clipPathUnits="userSpaceOnUse"
       id="clipPath3469"><g
         id="g3475"><g
           id="g3473"
           style="stroke-width:1.33333"
           transform="matrix(0.95485945,0,0,0.95485945,-1628.4422,-1117.3115)"><path
             d="m 1368.2034,1183.0186 h 885.9893 v 1104.4706 h -885.9893 z"
             id="path3471"
             style="stroke-width:1.33333" /></g></g></clipPath><clipPath
       clipPathUnits="userSpaceOnUse"
       id="clipPath3490"><g
         id="g3496"><g
           id="g3494"
           style="stroke-width:1.33333"
           transform="matrix(0.95485945,0,0,0.95485945,-1629.5005,-1118.3698)"><path
             d="m 1368.2034,1183.0186 h 885.9893 v 1104.4706 h -885.9893 z"
             id="path3492"
             style="stroke-width:1.33333" /></g></g></clipPath><clipPath
       clipPathUnits="userSpaceOnUse"
       id="clipPath3511"><g
         id="g3517"><g
           id="g3515"
           style="stroke-width:1.33333"
           transform="matrix(0.95485945,0,0,0.95485945,-1628.9713,-1118.3698)"><path
             d="m 1368.2034,1183.0186 h 885.9893 v 1104.4706 h -885.9893 z"
             id="path3513"
             style="stroke-width:1.33333" /></g></g></clipPath><clipPath
       clipPathUnits="userSpaceOnUse"
       id="clipPath3526"><g
         id="g3532"><g
           id="g3530"
           style="stroke-width:1.33333"
           transform="matrix(0.95485945,0,0,0.95485945,-1628.9713,-1117.3115)"><path
             d="m 1368.2034,1183.0186 h 885.9893 v 1104.4706 h -885.9893 z"
             id="path3528"
             style="stroke-width:1.33333" /></g></g></clipPath><clipPath
       clipPathUnits="userSpaceOnUse"
       id="clipPath3541"><g
         id="g3547"><g
           id="g3545"
           style="stroke-width:1.33333"
           transform="matrix(0.95485945,0,0,0.95485945,-1628.9713,-1117.3115)"><path
             d="m 1368.2034,1183.0186 h 885.9893 v 1104.4706 h -885.9893 z"
             id="path3543"
             style="stroke-width:1.33333" /></g></g></clipPath><clipPath
       clipPathUnits="userSpaceOnUse"
       id="clipPath3556"><g
         id="g3562"><g
           id="g3560"
           style="stroke-width:1.33333"
           transform="matrix(0.95485945,0,0,0.95485945,-1628.4422,-1118.3698)"><path
             d="m 1368.2034,1183.0186 h 885.9893 v 1104.4706 h -885.9893 z"
             id="path3558"
             style="stroke-width:1.33333" /></g></g></clipPath><clipPath
       clipPathUnits="userSpaceOnUse"
       id="clipPath3571"><g
         id="g3577"><g
           id="g3575"
           style="stroke-width:1.33333"
           transform="matrix(0.95485945,0,0,0.95485945,-1628.4422,-1117.8407)"><path
             d="m 1368.2034,1183.0186 h 885.9893 v 1104.4706 h -885.9893 z"
             id="path3573"
             style="stroke-width:1.33333" /></g></g></clipPath><clipPath
       clipPathUnits="userSpaceOnUse"
       id="clipPath3586"><g
         id="g3592"><g
           id="g3590"
           style="stroke-width:1.33333"
           transform="matrix(0.95485945,0,0,0.95485945,-1629.5005,-1117.3115)"><path
             d="m 1368.2034,1183.0186 h 885.9893 v 1104.4706 h -885.9893 z"
             id="path3588"
             style="stroke-width:1.33333" /></g></g></clipPath><clipPath
       clipPathUnits="userSpaceOnUse"
       id="clipPath3601"><g
         id="g3607"><g
           id="g3605"
           style="stroke-width:1.33333"
           transform="matrix(0.95485945,0,0,0.95485945,-1628.9713,-1117.8407)"><path
             d="m 1368.2034,1183.0186 h 885.9893 v 1104.4706 h -885.9893 z"
             id="path3603"
             style="stroke-width:1.33333" /></g></g></clipPath><clipPath
       clipPathUnits="userSpaceOnUse"
       id="clipPath3616"><g
         id="g3622"><g
           id="g3620"
           style="stroke-width:1.33333"
           transform="matrix(0.95485945,0,0,0.95485945,-1628.9713,-1117.8407)"><path
             d="m 1368.2034,1183.0186 h 885.9893 v 1104.4706 h -885.9893 z"
             id="path3618"
             style="stroke-width:1.33333" /></g></g></clipPath><clipPath
       clipPathUnits="userSpaceOnUse"
       id="clipPath3631"><g
         id="g3637"><g
           id="g3635"
           style="stroke-width:1.33333"
           transform="matrix(0.95485945,0,0,0.95485945,-1628.9713,-1117.8406)"><path
             d="m 1368.2034,1183.0186 h 885.9893 v 1104.4706 h -885.9893 z"
             id="path3633"
             style="stroke-width:1.33333" /></g></g></clipPath><clipPath
       clipPathUnits="userSpaceOnUse"
       id="clipPath3646"><g
         id="g3652"><g
           id="g3650"
           style="stroke-width:1.33333"
           transform="matrix(0.95485945,0,0,0.95485945,-1628.9713,-1117.8407)"><path
             d="m 1368.2034,1183.0186 h 885.9893 v 1104.4706 h -885.9893 z"
             id="path3648"
             style="stroke-width:1.33333" /></g></g></clipPath><clipPath
       clipPathUnits="userSpaceOnUse"
       id="clipPath3661"><g
         id="g3667"><g
           id="g3665"
           style="stroke-width:1.33333"
           transform="matrix(0.95485945,0,0,0.95485945,-1628.9713,-1117.8407)"><path
             d="m 1368.2034,1183.0186 h 885.9893 v 1104.4706 h -885.9893 z"
             id="path3663"
             style="stroke-width:1.33333" /></g></g></clipPath><clipPath
       clipPathUnits="userSpaceOnUse"
       id="clipPath3676"><g
         id="g3682"><g
           id="g3680"
           style="stroke-width:1.33333"
           transform="matrix(0.95485945,0,0,0.95485945,-1628.4422,-1117.8407)"><path
             d="m 1368.2034,1183.0186 h 885.9893 v 1104.4706 h -885.9893 z"
             id="path3678"
             style="stroke-width:1.33333" /></g></g></clipPath><clipPath
       clipPathUnits="userSpaceOnUse"
       id="clipPath3691"><g
         id="g3697"><g
           id="g3695"
           style="stroke-width:1.33333"
           transform="matrix(0.95485945,0,0,0.95485945,-1628.9713,-1117.8407)"><path
             d="m 1368.2034,1183.0186 h 885.9893 v 1104.4706 h -885.9893 z"
             id="path3693"
             style="stroke-width:1.33333" /></g></g></clipPath><clipPath
       clipPathUnits="userSpaceOnUse"
       id="clipPath3706"><g
         id="g3712"><g
           id="g3710"
           style="stroke-width:1.33333"
           transform="matrix(0.95485945,0,0,0.95485945,-1628.9713,-1117.8407)"><path
             d="m 1368.2034,1183.0186 h 885.9893 v 1104.4706 h -885.9893 z"
             id="path3708"
             style="stroke-width:1.33333" /></g></g></clipPath><clipPath
       clipPathUnits="userSpaceOnUse"
       id="clipPath3721"><g
         id="g3727"><g
           id="g3725"
           style="stroke-width:1.33333"
           transform="matrix(0.95485945,0,0,0.95485945,-1628.9713,-1117.8407)"><path
             d="m 1368.2034,1183.0186 h 885.9893 v 1104.4706 h -885.9893 z"
             id="path3723"
             style="stroke-width:1.33333" /></g></g></clipPath><clipPath
       clipPathUnits="userSpaceOnUse"
       id="clipPath3736"><g
         id="g3742"><g
           id="g3740"
           style="stroke-width:1.33333"
           transform="matrix(0.95485945,0,0,0.95485945,-1628.9713,-1117.8407)"><path
             d="m 1368.2034,1183.0186 h 885.9893 v 1104.4706 h -885.9893 z"
             id="path3738"
             style="stroke-width:1.33333" /></g></g></clipPath><clipPath
       clipPathUnits="userSpaceOnUse"
       id="clipPath3751"><g
         id="g3757"><g
           id="g3755"
           style="stroke-width:1.33333"
           transform="matrix(0.95485945,0,0,0.95485945,-1628.9713,-1117.8407)"><path
             d="m 1368.2034,1183.0186 h 885.9893 v 1104.4706 h -885.9893 z"
             id="path3753"
             style="stroke-width:1.33333" /></g></g></clipPath><clipPath
       clipPathUnits="userSpaceOnUse"
       id="clipPath3766"><g
         id="g3772"><g
           id="g3770"
           style="stroke-width:1.33333"
           transform="matrix(0.95485945,0,0,0.95485945,-1628.4421,-1118.3698)"><path
             d="m 1368.2034,1183.0186 h 885.9893 v 1104.4706 h -885.9893 z"
             id="path3768"
             style="stroke-width:1.33333" /></g></g></clipPath><clipPath
       clipPathUnits="userSpaceOnUse"
       id="clipPath3781"><g
         id="g3787"><g
           id="g3785"
           style="stroke-width:1.33333"
           transform="matrix(0.95485945,0,0,0.95485945,-1628.9713,-1117.8407)"><path
             d="m 1368.2034,1183.0186 h 885.9893 v 1104.4706 h -885.9893 z"
             id="path3783"
             style="stroke-width:1.33333" /></g></g></clipPath><clipPath
       clipPathUnits="userSpaceOnUse"
       id="clipPath3796"><g
         id="g3802"><g
           id="g3800"
           style="stroke-width:1.33333"
           transform="matrix(0.95485945,0,0,0.95485945,-1628.9713,-1117.3115)"><path
             d="m 1368.2034,1183.0186 h 885.9893 v 1104.4706 h -885.9893 z"
             id="path3798"
             style="stroke-width:1.33333" /></g></g></clipPath><clipPath
       clipPathUnits="userSpaceOnUse"
       id="clipPath3811"><g
         id="g3817"><g
           id="g3815"
           style="stroke-width:1.33333"
           transform="matrix(0.95485945,0,0,0.95485945,-1628.9713,-1117.8406)"><path
             d="m 1368.2034,1183.0186 h 885.9893 v 1104.4706 h -885.9893 z"
             id="path3813"
             style="stroke-width:1.33333" /></g></g></clipPath><clipPath
       clipPathUnits="userSpaceOnUse"
       id="clipPath3826"><g
         id="g3832"><g
           id="g3830"
           style="stroke-width:1.33333"
           transform="matrix(0.95485945,0,0,0.95485945,-1628.9713,-1117.8407)"><path
             d="m 1368.2034,1183.0186 h 885.9893 v 1104.4706 h -885.9893 z"
             id="path3828"
             style="stroke-width:1.33333" /></g></g></clipPath><clipPath
       clipPathUnits="userSpaceOnUse"
       id="clipPath3841"><g
         id="g3847"><g
           id="g3845"
           style="stroke-width:1.33333"
           transform="matrix(0.95485945,0,0,0.95485945,-1628.9713,-1117.8406)"><path
             d="m 1368.2034,1183.0186 h 885.9893 v 1104.4706 h -885.9893 z"
             id="path3843"
             style="stroke-width:1.33333" /></g></g></clipPath><clipPath
       clipPathUnits="userSpaceOnUse"
       id="clipPath3856"><g
         id="g3862"><g
           id="g3860"
           style="stroke-width:1.33333"
           transform="matrix(0.95485945,0,0,0.95485945,-1628.9713,-1117.8407)"><path
             d="m 1368.2034,1183.0186 h 885.9893 v 1104.4706 h -885.9893 z"
             id="path3858"
             style="stroke-width:1.33333" /></g></g></clipPath><clipPath
       clipPathUnits="userSpaceOnUse"
       id="clipPath3871"><g
         id="g3877"><g
           id="g3875"
           style="stroke-width:1.33333"
           transform="matrix(0.95485945,0,0,0.95485945,-1628.9713,-1117.8407)"><path
             d="m 1368.2034,1183.0186 h 885.9893 v 1104.4706 h -885.9893 z"
             id="path3873"
             style="stroke-width:1.33333" /></g></g></clipPath></defs><path
     d="M 0,0 -1.571,3.791 -3.143,0 l -1.053,-3.031 2.624,1.08 2.65,-1.104 z"
     style="display:inline;stroke-width:0.277091;fill:#ffff00;fill-opacity:1;fill-rule:nonzero;stroke:none"
     id="path2600-7-9"
     transform="matrix(1.2731459,0,0,-1.2731459,89.544938,35.986614)" /><path
     d="m 0,0 -3.055,-1.078 -3.791,-1.571 3.791,-1.571 3.03,-1.053 -1.08,2.623 z"
     style="display:inline;stroke-width:0.277091;fill:#ffff00;fill-opacity:1;fill-rule:nonzero;stroke:none"
     id="path2596-6-9"
     transform="matrix(1.2731459,0,0,-1.2731459,83.674114,40.37416)" /><path
     d="m 42.260496,130.10087 c 0,8.07938 6.507049,14.38782 14.195577,14.38782 7.689801,0 13.933309,-6.30844 13.933309,-14.38782 0,-8.08448 -6.243508,-14.26051 -13.933309,-14.26051 -7.753459,0 -14.195577,6.17603 -14.195577,14.26051 m 38.772385,0 c 0,13.27 -10.643499,23.45771 -24.710489,23.45771 -14.061896,0 -24.704123,-10.11769 -24.704123,-23.45771 0,-13.40877 10.642227,-23.32913 24.704123,-23.32913 14.06699,0 24.710489,9.98401 24.710489,23.32913"
     style="display:inline;fill:#ffff00;fill-opacity:1;fill-rule:nonzero;stroke:none;stroke-width:0.352777"
     id="path2440-5-3"
     clip-path="url(#clipPath3811)"
     transform="translate(10.300261,-30.517952)" /><path
     d="M 107.16582,153.09854 H 96.785861 v -14.58643 l -17.02196,-31.41488 h 10.449981 l 11.761318,20.6326 11.49906,-20.6326 h 10.44998 l -16.75842,31.14752 z"
     style="display:inline;fill:#ffff00;fill-opacity:1;fill-rule:nonzero;stroke:none;stroke-width:0.352777"
     id="path2444-9-9"
     clip-path="url(#clipPath3691)"
     transform="translate(10.300261,-30.517952)" /><path
     d="m 144.60289,117.94368 -7.29258,17.87115 h 14.5215 z m -10.71225,26.21917 -3.61191,8.93621 h -10.71225 l 19.97947,-46.00131 h 10.71225 l 19.64846,46.00131 h -11.10819 l -3.61192,-8.93621 z"
     style="display:inline;fill:#ffff00;fill-opacity:1;fill-rule:nonzero;stroke:none;stroke-width:0.352777"
     id="path2448-3-7"
     clip-path="url(#clipPath3826)"
     transform="translate(10.300261,-30.517952)" /><path
     d="m 210.96907,111.63522 -4.00786,8.60392 c -4.86342,-2.88877 -10.64223,-4.72974 -14.32417,-4.72974 -3.48332,0 -5.84883,1.24641 -5.84883,3.7456 0,8.47533 24.51315,3.74559 24.44822,20.30668 0,9.00496 -7.82221,13.86328 -18.00483,13.86328 -7.56121,0 -15.11606,-2.88877 -20.30668,-7.29258 l 4.13646,-8.4766 c 4.73482,4.20647 11.43412,6.8979 16.29881,6.8979 4.26886,0 6.83297,-1.57361 6.83297,-4.39872 0,-8.67903 -24.51315,-3.61701 -24.51315,-19.91582 0,-8.34165 7.16527,-13.60102 17.81386,-13.60102 6.43703,0 12.87914,1.97338 17.4752,4.9971"
     style="display:inline;fill:#ffff00;fill-opacity:1;fill-rule:nonzero;stroke:none;stroke-width:0.352777"
     id="path2452-8-4"
     clip-path="url(#clipPath3751)"
     transform="translate(10.300261,-30.517952)" /><path
     d="m 23.044704,136.51045 c 0,11.0891 -6.528692,17.38099 -17.1441827,17.38099 -6.60762721,0 -12.1101638,-2.90914 -16.2007813,-7.94316 l 4.4050845,-7.07742 c 3.6157344,3.93402 7.9418842,6.05381 11.7167618,6.05381 4.9538107,0 7.8642217,-3.06446 7.8642217,-8.72869 V 105.41386 H -5.3439033 V 97.078575 H 23.044704 Z"
     style="display:inline;fill:#ffff00;fill-opacity:1;fill-rule:nonzero;stroke:none;stroke-width:0.352777"
     id="path2456-8-7"
     clip-path="url(#clipPath3601)"
     transform="translate(10.300261,-30.517952)" /><path
     d="m -0.66120449,169.25936 c -0.89120211,0 -1.73147841,0.17187 -2.51700941,0.5118 -0.7855311,0.33993 -1.4717567,0.80081 -2.0561307,1.38519 -0.5831008,0.5831 -1.0439796,1.26932 -1.3839096,2.05613 -0.3412031,0.78553 -0.5092583,1.62199 -0.5092583,2.51573 0,0.89121 0.1680552,1.73785 0.5092583,2.53229 0.33993,0.79699 0.8008088,1.48704 1.3839096,2.07141 0.584374,0.5831 1.2705996,1.04653 2.0561307,1.38391 0.785531,0.33993 1.6258073,0.5118 2.51700941,0.5118 0.89120213,0 1.73147839,-0.17187 2.51700949,-0.5118 0.785531,-0.33738 1.4717566,-0.80081 2.0561306,-1.38391 0.5831008,-0.58437 1.0439796,-1.27442 1.3839096,-2.07141 0.3412031,-0.79444 0.5092583,-1.64108 0.5092583,-2.53229 0,-0.89374 -0.1680552,-1.7302 -0.5092583,-2.51573 -0.33993,-0.78681 -0.8008088,-1.47303 -1.3839096,-2.05613 -0.584374,-0.58438 -1.2705996,-1.04526 -2.0561306,-1.38519 -0.7855311,-0.33993 -1.62580736,-0.5118 -2.51700949,-0.5118 m 6.14674839,12.64998 c -0.8059013,0.8059 -1.7391173,1.43229 -2.8021941,1.87789 -1.0630768,0.4456 -2.1770795,0.6684 -3.34455429,0.6684 -1.16747481,0 -2.28147741,-0.2228 -3.34455431,-0.6684 -1.0630768,-0.4456 -1.9962927,-1.07199 -2.8021941,-1.87789 -0.8313643,-0.82882 -1.4628446,-1.77349 -1.8969874,-2.83657 -0.436689,-1.06181 -0.6531238,-2.17581 -0.6531238,-3.34456 0,-1.1471 0.2164348,-2.25092 0.6531238,-3.31399 0.4341428,-1.06308 1.0656231,-2.00776 1.8969874,-2.8353 0.8059014,-0.80717 1.7391173,-1.43356 2.8021941,-1.87916 1.0630769,-0.4456 2.1770795,-0.66841 3.34455431,-0.66841 1.16747479,0 2.28147749,0.22281 3.34455429,0.66841 1.0630768,0.4456 1.9962928,1.07199 2.8021941,1.87916 0.1515044,0.15023 0.2559023,0.26736 0.3195596,0.35139 v -8.50716 h 2.2305517 v 14.30506 c 0,1.16875 -0.2164349,2.28275 -0.6531239,3.34456 -0.436689,1.06308 -1.0656231,2.00775 -1.8969874,2.83657"
     style="display:inline;fill:#ffff00;fill-opacity:1;fill-rule:nonzero;stroke:none;stroke-width:0.352777"
     id="path2460-40-1"
     clip-path="url(#clipPath3856)"
     transform="translate(10.300261,-30.517952)" /><path
     d="m 20.39612,169.25936 c -0.701503,0 -1.369905,0.10822 -2.007751,0.31956 -0.6353,0.21389 -1.219674,0.5118 -1.751849,0.89375 -0.529629,0.38194 -0.996873,0.83645 -1.40046,1.3699 -0.403588,0.52963 -0.721874,1.11401 -0.957406,1.75185 h 12.20183 c -0.467244,-1.27696 -1.24641,-2.31458 -2.340042,-3.12175 -1.094905,-0.80718 -2.341315,-1.21331 -3.744322,-1.21331 m -6.466308,6.56307 c 0,0.89375 0.174421,1.72766 0.523263,2.50046 0.352661,0.77661 0.819906,1.45138 1.403007,2.02302 0.584374,0.57547 1.264234,1.03253 2.038306,1.36991 0.776619,0.33993 1.61053,0.5118 2.501732,0.5118 1.210762,0 2.314579,-0.30428 3.313999,-0.90902 0.996873,-0.60475 1.773492,-1.40556 2.324764,-2.40497 h 2.486454 c -0.44942,1.12546 -1.105091,2.12488 -1.978469,2.99571 -0.827544,0.8059 -1.767126,1.43229 -2.817471,1.87789 -1.050346,0.4456 -2.161802,0.6684 -3.329277,0.6684 -1.167475,0 -2.281477,-0.2228 -3.344554,-0.6684 -1.063077,-0.4456 -1.996293,-1.07199 -2.802194,-1.87789 -0.831365,-0.82882 -1.462845,-1.77095 -1.896988,-2.82129 -0.436689,-1.05035 -0.653124,-2.16181 -0.653124,-3.32928 0,-1.16875 0.216435,-2.28148 0.653124,-3.34455 0.434143,-1.06308 1.065623,-1.9963 1.896988,-2.8022 0.805901,-0.82882 1.739117,-1.46666 2.802194,-1.91226 1.063077,-0.4456 2.177079,-0.66841 3.344554,-0.66841 1.167475,0 2.278931,0.22281 3.329277,0.66841 1.050345,0.4456 1.989927,1.08344 2.817471,1.91226 0.831365,0.8059 1.460299,1.75185 1.896988,2.8353 0.436689,1.08344 0.653124,2.21018 0.653124,3.37511 z"
     style="display:inline;fill:#ffff00;fill-opacity:1;fill-rule:nonzero;stroke:none;stroke-width:0.352777"
     id="path2464-5-4"
     clip-path="url(#clipPath3871)"
     transform="translate(10.300261,-30.517952)" /><path
     d="m 52.730139,184.45565 c -1.147104,-0.042 -2.203816,-0.2228 -3.170133,-0.54236 -0.966318,-0.31574 -1.800229,-0.7728 -2.501732,-1.36863 -0.697684,-0.59329 -1.24641,-1.33171 -1.639812,-2.21273 -0.392129,-0.88229 -0.599652,-1.9059 -0.620022,-3.07465 h 2.230552 c 0.147685,1.76204 0.737151,3.03264 1.767126,3.80544 1.028702,0.77662 2.341315,1.16492 3.934021,1.16492 0.637846,0 1.257868,-0.0815 1.863886,-0.24062 0.604744,-0.15914 1.134373,-0.39722 1.591432,-0.71678 0.458332,-0.31829 0.828818,-0.72442 1.117822,-1.22477 0.285185,-0.49907 0.430323,-1.08981 0.430323,-1.76967 0,-0.78553 -0.17824,-1.43356 -0.527082,-1.94155 -0.348842,-0.5118 -0.812267,-0.93958 -1.385183,-1.29224 -0.574189,-0.34884 -1.227312,-0.64676 -1.959371,-0.8912 -0.734605,-0.24317 -1.478123,-0.49271 -2.230552,-0.74861 -0.756249,-0.25336 -1.495946,-0.5309 -2.230552,-0.82882 -0.732058,-0.29792 -1.385182,-0.67349 -1.959371,-1.13183 -0.572916,-0.45451 -1.036341,-1.02361 -1.385183,-1.70347 -0.348842,-0.67986 -0.527082,-1.51759 -0.527082,-2.51701 0,-1.01724 0.198611,-1.93263 0.590739,-2.73853 0.393403,-0.80718 0.911573,-1.4934 1.562151,-2.05613 0.646758,-0.56019 1.396641,-0.99051 2.245829,-1.28843 0.847915,-0.29791 1.730205,-0.4456 2.643051,-0.4456 0.847915,0 1.672913,0.13877 2.46863,0.4125 0.796989,0.27627 1.501039,0.65949 2.118514,1.14711 0.617476,0.49016 1.111457,1.08854 1.480669,1.80022 0.370486,0.71297 0.557638,1.49213 0.557638,2.34132 h -2.228005 c -0.04456,-0.59329 -0.198611,-1.11018 -0.463425,-1.54433 -0.264815,-0.43669 -0.604745,-0.79699 -1.01979,-1.08344 -0.4125,-0.28646 -0.877198,-0.50035 -1.385183,-0.63785 -0.509258,-0.13877 -1.021063,-0.20498 -1.529048,-0.20498 -0.65949,0 -1.279512,0.0993 -1.863886,0.30047 -0.584374,0.20243 -1.092359,0.48506 -1.529048,0.84282 -0.436689,0.36412 -0.779165,0.81354 -1.035068,1.35463 -0.255902,0.54236 -0.383217,1.14455 -0.383217,1.80022 0,0.72315 0.171875,1.31898 0.509259,1.78495 0.33993,0.46725 0.785531,0.86447 1.339349,1.19549 0.551272,0.32847 1.180207,0.61111 1.87789,0.84282 0.701504,0.23553 1.424651,0.46725 2.168168,0.7015 0.743517,0.23554 1.46921,0.50035 2.182172,0.79445 0.710415,0.29791 1.354627,0.68113 1.92627,1.1471 1.466664,1.19294 2.198723,2.72199 2.198723,4.58842 0,1.01979 -0.204977,1.91736 -0.621295,2.69398 -0.415046,0.77407 -0.966318,1.41828 -1.65509,1.92627 -0.692592,0.50925 -1.466664,0.89756 -2.327311,1.16238 -0.860646,0.26481 -1.736571,0.39722 -2.627773,0.39722"
     style="display:inline;fill:#ffff00;fill-opacity:1;fill-rule:nonzero;stroke:none;stroke-width:0.352777"
     id="path2468-0-1"
     clip-path="url(#clipPath3616)"
     transform="translate(10.300261,-30.517952)" /><path
     d="m 71.081191,182.22797 c 0.891202,0 1.731478,-0.17187 2.517009,-0.5118 0.785531,-0.33739 1.471757,-0.80081 2.056131,-1.38519 0.583101,-0.5831 1.04398,-1.26932 1.38391,-2.05613 0.341203,-0.78553 0.509258,-1.62199 0.509258,-2.51573 0,-0.89121 -0.168055,-1.73403 -0.509258,-2.53229 -0.33993,-0.79699 -0.800809,-1.48704 -1.38391,-2.07141 -0.584374,-0.5831 -1.2706,-1.04398 -2.056131,-1.38391 -0.785531,-0.33993 -1.625807,-0.5118 -2.517009,-0.5118 -0.891202,0 -1.731478,0.17187 -2.517009,0.5118 -0.785531,0.33993 -1.471757,0.80081 -2.056131,1.38391 -0.583101,0.58437 -1.04398,1.27442 -1.38391,2.07141 -0.341203,0.79826 -0.509258,1.64108 -0.509258,2.53229 0,0.89374 0.168055,1.7302 0.509258,2.51573 0.33993,0.78681 0.800809,1.47303 1.38391,2.05613 0.584374,0.58438 1.2706,1.0478 2.056131,1.38519 0.785531,0.33993 1.625807,0.5118 2.517009,0.5118 m 6.146748,-12.64998 c 0.831365,0.82882 1.460299,1.77349 1.896988,2.83657 0.436689,1.06181 0.653124,2.17581 0.653124,3.34456 v 7.9648 h -2.230552 v -2.3897 c -0.423958,0.59583 -0.891202,1.08981 -1.40046,1.48067 -0.511805,0.39468 -1.046526,0.71296 -1.61053,0.95741 -0.562731,0.24317 -1.140739,0.41886 -1.734025,0.52326 -0.595832,0.10822 -1.170021,0.16042 -1.721293,0.16042 -1.167475,0 -2.281477,-0.22281 -3.344554,-0.66841 -1.063077,-0.4456 -1.996293,-1.07199 -2.802194,-1.87916 -0.831365,-0.82754 -1.462845,-1.77222 -1.896988,-2.8353 -0.436689,-1.06307 -0.653124,-2.16689 -0.653124,-3.31399 0,-1.16875 0.216435,-2.28275 0.653124,-3.34456 0.434143,-1.06308 1.065623,-2.00775 1.896988,-2.83657 0.805901,-0.8059 1.739117,-1.43229 2.802194,-1.87789 1.063077,-0.4456 2.177079,-0.6684 3.344554,-0.6684 1.167475,0 2.281477,0.2228 3.344554,0.6684 1.063077,0.4456 1.996293,1.07199 2.802194,1.87789"
     style="display:inline;fill:#ffff00;fill-opacity:1;fill-rule:nonzero;stroke:none;stroke-width:0.352777"
     id="path2472-1-7"
     clip-path="url(#clipPath3841)"
     transform="translate(10.300261,-30.517952)" /><path
     d="m 96.756317,169.03668 c 0.67986,0.67986 1.200577,1.45648 1.56215,2.32731 0.361573,0.86956 0.54236,1.78495 0.54236,2.73854 v 9.62116 h -2.230551 v -9.62116 c 0,-0.67986 -0.132408,-1.31516 -0.397222,-1.91099 -0.268634,-0.59329 -0.623841,-1.11401 -1.069443,-1.55961 -0.445601,-0.44815 -0.966317,-0.79699 -1.56215,-1.05289 -0.593286,-0.25336 -1.231132,-0.38322 -1.910992,-0.38322 -0.677313,0 -1.316432,0.12986 -1.909718,0.38322 -0.595833,0.2559 -1.116549,0.60474 -1.56215,1.05289 -0.445601,0.4456 -0.79699,0.96632 -1.050346,1.55961 -0.255902,0.59583 -0.381944,1.23113 -0.381944,1.91099 v 9.62116 H 84.55576 v -15.92705 h 1.848608 l 0.381943,1.43229 c 0.677314,-0.74352 1.43229,-1.30625 2.261108,-1.6882 0.827544,-0.38194 1.709835,-0.57164 2.64305,-0.57164 0.956133,0 1.868979,0.17442 2.742357,0.52326 0.869558,0.35267 1.643631,0.86702 2.323491,1.54433"
     style="display:inline;fill:#ffff00;fill-opacity:1;fill-rule:nonzero;stroke:none;stroke-width:0.352777"
     id="path2476-9-2"
     clip-path="url(#clipPath3706)"
     transform="translate(10.300261,-30.517952)" /><path
     d="m 125.81202,171.71288 c 0.23171,-0.21134 0.4456,-0.48761 0.6353,-0.82754 0.17187,-0.29792 0.32465,-0.65695 0.46342,-1.08345 0.13878,-0.42523 0.20753,-0.9434 0.20753,-1.55961 0,-0.91284 -0.11077,-1.64108 -0.33739,-2.18344 -0.2228,-0.54109 -0.5449,-0.98032 -0.96886,-1.32153 -0.89375,-0.72187 -2.04976,-1.08344 -3.47442,-1.08344 h -5.542 v 9.14246 h 5.542 c 1.42466,0 2.58067,-0.36158 3.47442,-1.08345 m 1.30625,7.42371 c 0,-1.18911 -0.37303,-2.15543 -1.11655,-2.89895 -0.80718,-0.74352 -1.93264,-1.1471 -3.37766,-1.21076 h -5.82846 v 8.69686 h -2.23055 v -22.30043 h 7.77255 c 0.95741,0 1.84861,0.13241 2.67616,0.39723 0.82882,0.26863 1.56342,0.65312 2.19745,1.16492 0.63912,0.50926 1.15983,1.16875 1.56342,1.97465 0.16806,0.38322 0.30683,0.81609 0.4125,1.30752 0.10822,0.48762 0.15914,1.14584 0.15914,1.97465 0,0.86956 -0.0509,1.53542 -0.15914,1.98993 -0.10567,0.45706 -0.24444,0.87593 -0.4125,1.25787 -0.40359,0.80717 -0.9243,1.46666 -1.56342,1.97465 -0.1044,0.0879 -0.20371,0.16551 -0.30047,0.24062 -0.0968,0.0751 -0.19861,0.14132 -0.30428,0.20753 0.17188,0.10567 0.33102,0.2177 0.47871,0.33483 0.14768,0.11713 0.29791,0.23808 0.4456,0.36412 0.97905,0.95741 1.56215,2.12488 1.75185,3.5037 0.0216,0.17188 0.0369,0.33993 0.0484,0.51181 0.0127,0.16932 0.0153,0.33993 0.0153,0.50925 v 4.58715 h -2.228 z"
     style="display:inline;fill:#ffff00;fill-opacity:1;fill-rule:nonzero;stroke:none;stroke-width:0.352777"
     id="path2480-94-1"
     clip-path="url(#clipPath3721)"
     transform="translate(10.300261,-30.517952)" /><path
     d="m 140.65607,169.25936 c -0.8912,0 -1.73148,0.17187 -2.51701,0.5118 -0.78553,0.33993 -1.47176,0.80081 -2.05613,1.38519 -0.5831,0.5831 -1.04398,1.27314 -1.38391,2.07013 -0.3412,0.79827 -0.50926,1.64109 -0.50926,2.53229 0,0.89375 0.16806,1.73021 0.50926,2.51701 0.33993,0.78553 0.80081,1.47176 1.38391,2.05613 0.58437,0.5831 1.2706,1.04653 2.05613,1.38391 0.78553,0.33993 1.62581,0.5118 2.51701,0.5118 0.8912,0 1.73148,-0.17187 2.51701,-0.5118 0.78553,-0.33738 1.4743,-0.80081 2.07013,-1.38391 0.59329,-0.58437 1.06308,-1.2706 1.40301,-2.05613 0.33739,-0.7868 0.50926,-1.62326 0.50926,-2.51701 0,-0.8912 -0.17187,-1.73402 -0.50926,-2.53229 -0.33993,-0.79699 -0.80972,-1.48703 -1.40301,-2.07013 -0.59583,-0.58438 -1.2846,-1.04526 -2.07013,-1.38519 -0.78553,-0.33993 -1.62581,-0.5118 -2.51701,-0.5118 m 0,15.19627 c -1.16747,0 -2.27893,-0.2228 -3.32928,-0.6684 -1.05034,-0.4456 -1.98992,-1.07199 -2.81747,-1.87789 -0.80972,-0.82882 -1.43611,-1.77349 -1.88171,-2.83657 -0.4456,-1.06181 -0.6684,-2.1669 -0.6684,-3.314 0,-1.16875 0.2228,-2.28148 0.6684,-3.34455 0.4456,-1.06308 1.07199,-2.00776 1.88171,-2.8353 0.82755,-0.80717 1.76713,-1.43356 2.81747,-1.87916 1.05035,-0.4456 2.16181,-0.66841 3.32928,-0.66841 1.16747,0 2.28148,0.22281 3.34455,0.66841 1.06308,0.4456 2.00776,1.07199 2.8353,1.87916 0.80717,0.82754 1.43356,1.77222 1.87916,2.8353 0.44815,1.06307 0.67095,2.1758 0.67095,3.34455 0,1.1471 -0.2228,2.25219 -0.67095,3.314 -0.4456,1.06308 -1.07199,2.00775 -1.87916,2.83657 -0.82754,0.8059 -1.77222,1.43229 -2.8353,1.87789 -1.06307,0.4456 -2.17708,0.6684 -3.34455,0.6684"
     style="display:inline;fill:#ffff00;fill-opacity:1;fill-rule:nonzero;stroke:none;stroke-width:0.352777"
     id="path2484-8-6"
     clip-path="url(#clipPath3781)"
     transform="translate(10.300261,-30.517952)" /><path
     d="m 161.90599,182.22797 c 0.8912,0 1.73148,-0.17187 2.51701,-0.5118 0.78553,-0.33739 1.47176,-0.80081 2.05613,-1.38519 0.5831,-0.5831 1.04398,-1.26932 1.38391,-2.05613 0.3412,-0.78553 0.50926,-1.62199 0.50926,-2.51573 0,-0.89121 -0.16806,-1.73403 -0.50926,-2.53229 -0.33993,-0.79699 -0.80081,-1.48704 -1.38391,-2.07141 -0.58437,-0.5831 -1.2706,-1.04398 -2.05613,-1.38391 -0.78553,-0.33993 -1.62581,-0.5118 -2.51701,-0.5118 -0.8912,0 -1.73148,0.17187 -2.51701,0.5118 -0.78553,0.33993 -1.47176,0.80081 -2.05613,1.38391 -0.5831,0.58437 -1.04398,1.27442 -1.38391,2.07141 -0.3412,0.79826 -0.50926,1.64108 -0.50926,2.53229 0,0.89374 0.16806,1.7302 0.50926,2.51573 0.33993,0.78681 0.80081,1.47303 1.38391,2.05613 0.58437,0.58438 1.2706,1.0478 2.05613,1.38519 0.78553,0.33993 1.62581,0.5118 2.51701,0.5118 m 6.14675,-12.64998 c 0.83136,0.82882 1.4603,1.77349 1.89699,2.83657 0.43668,1.06181 0.65312,2.17581 0.65312,3.34456 v 14.78377 h -2.23055 v -8.98587 c -0.0637,0.0866 -0.16806,0.20371 -0.31956,0.35139 -0.8059,0.80717 -1.73912,1.43356 -2.8022,1.87916 -1.06307,0.4456 -2.17708,0.66841 -3.34455,0.66841 -1.16747,0 -2.28148,-0.22281 -3.34455,-0.66841 -1.06308,-0.4456 -1.9963,-1.07199 -2.8022,-1.87916 -0.83136,-0.82754 -1.46284,-1.77222 -1.89699,-2.8353 -0.43668,-1.06307 -0.65312,-2.16689 -0.65312,-3.31399 0,-1.16875 0.21644,-2.28275 0.65312,-3.34456 0.43415,-1.06308 1.06563,-2.00775 1.89699,-2.83657 0.8059,-0.8059 1.73912,-1.43229 2.8022,-1.87789 1.06307,-0.4456 2.17708,-0.6684 3.34455,-0.6684 1.16747,0 2.28148,0.2228 3.34455,0.6684 1.06308,0.4456 1.9963,1.07199 2.8022,1.87789"
     style="display:inline;fill:#ffff00;fill-opacity:1;fill-rule:nonzero;stroke:none;stroke-width:0.352777"
     id="path2488-1-0"
     clip-path="url(#clipPath3631)"
     transform="translate(10.300261,-30.517952)" /><path
     d="m 176.52413,182.38752 c -0.67731,-0.67986 -1.19803,-1.45648 -1.5596,-2.32731 -0.36158,-0.86956 -0.54109,-1.78495 -0.54109,-2.73854 v -9.52568 h 2.23055 v 9.52568 c 0,0.67986 0.13241,1.31516 0.39722,1.91099 0.26482,0.59329 0.62002,1.11401 1.06817,1.55961 0.4456,0.44815 0.96632,0.79699 1.55961,1.05289 0.59583,0.25336 1.23113,0.38322 1.91099,0.38322 0.68113,0 1.31643,-0.12986 1.91226,-0.38322 0.59329,-0.2559 1.11401,-0.60474 1.56215,-1.05289 0.4456,-0.4456 0.80081,-0.96632 1.06563,-1.55961 0.26481,-0.59583 0.39722,-1.23113 0.39722,-1.91099 v -9.52568 h 2.23055 v 9.52568 c 0,0.95359 -0.18079,1.86898 -0.54109,2.73854 -0.36157,0.87083 -0.88229,1.64745 -1.5596,2.32731 -0.68113,0.67731 -1.45775,1.19166 -2.32731,1.54433 -0.86956,0.34884 -1.78241,0.52326 -2.73981,0.52326 -0.95359,0 -1.86898,-0.17442 -2.73854,-0.52326 -0.87083,-0.35267 -1.64745,-0.86702 -2.32731,-1.54433"
     style="display:inline;fill:#ffff00;fill-opacity:1;fill-rule:nonzero;stroke:none;stroke-width:0.352777"
     id="path2492-5-2"
     clip-path="url(#clipPath3646)"
     transform="translate(10.300261,-30.517952)" /><path
     d="m 201.59721,169.25936 c -0.7015,0 -1.3699,0.10822 -2.00775,0.31956 -0.6353,0.21389 -1.21967,0.5118 -1.75185,0.89375 -0.52963,0.38194 -0.99687,0.83645 -1.40046,1.3699 -0.40359,0.52963 -0.72187,1.11401 -0.95741,1.75185 h 12.20183 c -0.46724,-1.27696 -1.24641,-2.31458 -2.34004,-3.12175 -1.0949,-0.80718 -2.34131,-1.21331 -3.74432,-1.21331 m -6.46631,6.56307 c 0,0.89375 0.17442,1.72766 0.52454,2.50046 0.35139,0.77661 0.81863,1.45138 1.40173,2.02302 0.58438,0.57547 1.26424,1.03253 2.03831,1.36991 0.77662,0.33993 1.61053,0.5118 2.50173,0.5118 1.21076,0 2.31458,-0.30428 3.314,-0.90902 0.99687,-0.60475 1.77349,-1.40556 2.32476,-2.40497 h 2.48646 c -0.44942,1.12546 -1.10509,2.12488 -1.97847,2.99571 -0.82755,0.8059 -1.76713,1.43229 -2.81747,1.87789 -1.05035,0.4456 -2.16181,0.6684 -3.32928,0.6684 -1.16747,0 -2.28148,-0.2228 -3.34455,-0.6684 -1.06308,-0.4456 -1.9963,-1.07199 -2.8022,-1.87789 -0.83136,-0.82882 -1.46284,-1.77095 -1.89699,-2.82129 -0.43668,-1.05035 -0.65312,-2.16181 -0.65312,-3.32928 0,-1.16875 0.21644,-2.28148 0.65312,-3.34455 0.43415,-1.06308 1.06563,-1.9963 1.89699,-2.8022 0.8059,-0.82882 1.73912,-1.46666 2.8022,-1.91226 1.06307,-0.4456 2.17708,-0.66841 3.34455,-0.66841 1.16747,0 2.27893,0.22281 3.32928,0.66841 1.05034,0.4456 1.98992,1.08344 2.81747,1.91226 0.83136,0.8059 1.4603,1.75185 1.89699,2.8353 0.43668,1.08344 0.65312,2.21018 0.65312,3.37511 z"
     style="display:inline;fill:#ffff00;fill-opacity:1;fill-rule:nonzero;stroke:none;stroke-width:0.352777"
     id="path2496-4-2"
     clip-path="url(#clipPath3661)"
     transform="translate(10.300261,-30.517952)" /><path
     d="m 100.43099,59.143712 -5.601842,-2.3515 -2.298028,-5.623486 2.350227,-5.601842 5.623483,-2.298028 5.60184,2.3515 2.29931,5.623486 -2.3515,5.601842 z"
     style="display:inline;fill:#ffff00;fill-opacity:1;fill-rule:nonzero;stroke:none;stroke-width:0.352777"
     id="path2500-6-0"
     clip-path="url(#clipPath3736)"
     transform="translate(10.300261,-30.517952)" /><path
     d="M 96.593919,63.825189 94.29971,57.32196 87.84868,55.07995 79.780754,51.735396 99.938473,71.893115 Z"
     style="display:inline;fill:#ffff00;fill-opacity:1;fill-rule:nonzero;stroke:none;stroke-width:0.352777"
     id="path2504-3-7"
     clip-path="url(#clipPath3586)"
     transform="translate(10.300261,-30.517952)" /><path
     d="m 121.15554,51.177622 -8.06793,-3.344554 -6.45103,-2.24201 2.29803,5.584018 0.004,0.0038 -2.35404,5.642583 6.50322,-2.294209 -0.0165,-0.01655 0.0165,0.01146 z"
     style="display:inline;fill:#ffff00;fill-opacity:1;fill-rule:nonzero;stroke:none;stroke-width:0.352777"
     id="path2508-2-6"
     clip-path="url(#clipPath3676)"
     transform="translate(10.300261,-30.517952)" /><path
     d="m 106.05465,57.378639 -5.58147,2.298028 -0.003,-0.0038 -5.641307,-2.351501 2.294209,6.50323 3.344558,8.069198 3.34328,-8.065379 0.001,0.0013 z"
     style="display:inline;fill:#ffff00;fill-opacity:1;fill-rule:nonzero;stroke:none;stroke-width:0.352777"
     id="path2512-9-9"
     clip-path="url(#clipPath3796)"
     transform="translate(10.300261,-30.517952)" /><path
     d="m 100.99722,30.518489 3.34455,8.069199 2.29421,6.503229 6.45103,2.240737 8.0692,3.344554 z"
     style="display:inline;fill:#ffff00;fill-opacity:1;fill-rule:nonzero;stroke:none;stroke-width:0.352777"
     id="path2516-6-6"
     clip-path="url(#clipPath3766)"
     transform="translate(10.300261,-30.517952)" /><path
     d="m 113.08716,55.080109 -0.006,0.0064 -6.49686,2.291662 -2.23946,6.444665 -0.003,0.0025 -3.34455,8.067926 20.15772,-20.157719 z"
     style="display:inline;fill:#ffff00;fill-opacity:1;fill-rule:nonzero;stroke:none;stroke-width:0.352777"
     id="path2520-1-8"
     clip-path="url(#clipPath3292)"
     transform="translate(10.300261,-30.517952)" /><path
     d="m 94.352579,45.567252 -6.503229,2.294209 -8.069199,3.344554 8.069199,3.344554 6.45103,2.24201 -2.299301,-5.584018 z"
     style="display:inline;fill:#ffff00;fill-opacity:1;fill-rule:nonzero;stroke:none;stroke-width:0.352777"
     id="path2524-1-4"
     clip-path="url(#clipPath3367)"
     transform="translate(10.300261,-30.517952)" /><path
     d="m 103.81283,38.58715 -3.34455,-8.069199 -3.344559,8.069199 -2.242009,6.45103 5.584018,-2.299301 5.64131,2.3515 z"
     style="display:inline;fill:#ffff00;fill-opacity:1;fill-rule:nonzero;stroke:none;stroke-width:0.352777"
     id="path2528-9-7"
     clip-path="url(#clipPath3322)"
     transform="translate(10.300261,-30.517952)" /><path
     d="m 79.780368,50.676812 8.069199,-3.344554 6.503229,-2.294209 2.240737,-6.45103 3.345827,-8.067926 z"
     style="display:inline;fill:#ffff00;fill-opacity:1;fill-rule:nonzero;stroke:none;stroke-width:0.352777"
     id="path2532-2-7"
     clip-path="url(#clipPath3337)"
     transform="translate(10.300261,-30.517952)" /><path
     d="m 123.66971,79.012235 -3.35092,-1.406826 -1.37372,-3.362379 1.40555,-3.35092 3.36365,-1.374997 3.35092,1.406826 1.37372,3.363652 -1.40555,3.349646 z"
     style="display:inline;fill:#ffff00;fill-opacity:1;fill-rule:nonzero;stroke:none;stroke-width:0.352777"
     id="path2536-4-9"
     clip-path="url(#clipPath3352)"
     transform="translate(10.300261,-30.517952)" /><path
     d="m 121.16207,82.024986 -1.37245,-3.889461 -3.85763,-1.340622 -4.8265,-2.001386 12.05669,12.056692 z"
     style="display:inline;fill:#ffff00;fill-opacity:1;fill-rule:nonzero;stroke:none;stroke-width:0.352777"
     id="path2540-4-7"
     clip-path="url(#clipPath3307)"
     transform="translate(10.300261,-30.517952)" /><path
     d="m 136.27784,74.247693 -4.82522,-2.000112 -3.85891,-1.340623 1.375,3.339462 0.003,0.0025 -1.40938,3.373837 3.89074,-1.372451 -0.0102,-0.0089 0.0102,0.0064 z"
     style="display:inline;fill:#ffff00;fill-opacity:1;fill-rule:nonzero;stroke:none;stroke-width:0.352777"
     id="path2544-9-1"
     clip-path="url(#clipPath3571)"
     transform="translate(10.300261,-30.517952)" /><path
     d="m 127.0333,78.169259 -3.33819,1.373724 -0.001,-0.0013 -3.37511,-1.406826 1.37245,3.890734 2.00011,4.825223 2.00011,-4.82395 0.001,0.0013 z"
     style="display:inline;fill:#ffff00;fill-opacity:1;fill-rule:nonzero;stroke:none;stroke-width:0.352777"
     id="path2548-3-4"
     clip-path="url(#clipPath3526)"
     transform="translate(10.300261,-30.517952)" /><path
     d="m 124.22101,61.678699 2.00011,4.826496 1.37245,3.889461 3.85891,1.340622 4.82522,2.000113 z"
     style="display:inline;fill:#ffff00;fill-opacity:1;fill-rule:nonzero;stroke:none;stroke-width:0.352777"
     id="path2552-2-8"
     clip-path="url(#clipPath3556)"
     transform="translate(10.300261,-30.517952)" /><path
     d="m 131.45197,76.794465 -0.004,0.0038 -3.88564,1.371179 -1.33935,3.853812 -0.001,0.0013 -2.00139,4.826496 12.05669,-12.056691 z"
     style="display:inline;fill:#ffff00;fill-opacity:1;fill-rule:nonzero;stroke:none;stroke-width:0.352777"
     id="path2556-9-3"
     clip-path="url(#clipPath3469)"
     transform="translate(10.300261,-30.517952)" /><path
     d="m 119.82145,70.89211 -3.88946,1.372451 -4.8265,2.000112 4.8265,2.000113 3.85763,1.340622 -1.375,-3.339461 z"
     style="display:inline;fill:#ffff00;fill-opacity:1;fill-rule:nonzero;stroke:none;stroke-width:0.352777"
     id="path2560-8-0"
     clip-path="url(#clipPath3448)"
     transform="translate(10.300261,-30.517952)" /><path
     d="m 125.69239,66.504566 -2.00011,-4.826496 -2.00139,4.826496 -1.34062,3.858905 3.34073,-1.374997 3.37384,1.405553 z"
     style="display:inline;fill:#ffff00;fill-opacity:1;fill-rule:nonzero;stroke:none;stroke-width:0.352777"
     id="path2564-7-7"
     clip-path="url(#clipPath3511)"
     transform="translate(10.300261,-30.517952)" /><path
     d="m 111.10588,73.735525 4.82522,-2.000112 3.89074,-1.372451 1.34062,-3.858906 2.00011,-4.825223 z"
     style="display:inline;fill:#ffff00;fill-opacity:1;fill-rule:nonzero;stroke:none;stroke-width:0.352777"
     id="path2568-1-8"
     clip-path="url(#clipPath3490)"
     transform="translate(10.300261,-30.517952)" /><path
     d="m 77.222095,79.012235 -3.35092,-1.406826 -1.373724,-3.362379 1.405553,-3.35092 3.363651,-1.374997 3.35092,1.406826 1.373725,3.363652 -1.405554,3.349646 z"
     style="display:inline;fill:#ffff00;fill-opacity:1;fill-rule:nonzero;stroke:none;stroke-width:0.352777"
     id="path2572-3-3"
     clip-path="url(#clipPath3418)"
     transform="translate(10.300261,-30.517952)" /><path
     d="M 74.714479,82.024986 73.342028,78.135525 69.484396,76.794903 64.6579,74.793517 76.714591,86.850209 Z"
     style="display:inline;fill:#ffff00;fill-opacity:1;fill-rule:nonzero;stroke:none;stroke-width:0.352777"
     id="path2576-0-5"
     clip-path="url(#clipPath3433)"
     transform="translate(10.300261,-30.517952)" /><path
     d="m 89.830221,74.247693 -4.825223,-2.000112 -3.858905,-1.340623 1.374997,3.339462 0.0025,0.0025 -1.409373,3.373837 3.890734,-1.372451 -0.01019,-0.0089 0.01019,0.0064 z"
     style="display:inline;fill:#ffff00;fill-opacity:1;fill-rule:nonzero;stroke:none;stroke-width:0.352777"
     id="path2580-0-7"
     clip-path="url(#clipPath3397)"
     transform="translate(10.300261,-30.517952)" /><path
     d="m 80.585589,78.169259 -3.338189,1.373724 -0.0013,-0.0013 -3.375109,-1.406826 1.372451,3.890734 2.000112,4.825223 2.000112,-4.82395 0.0013,0.0013 z"
     style="display:inline;fill:#ffff00;fill-opacity:1;fill-rule:nonzero;stroke:none;stroke-width:0.352777"
     id="path2584-0-5"
     clip-path="url(#clipPath3541)"
     transform="translate(10.300261,-30.517952)" /><path
     d="m 77.773395,61.678699 2.000112,4.826496 1.372451,3.889461 3.858906,1.340622 4.825223,2.000113 z"
     style="display:inline;fill:#ffff00;fill-opacity:1;fill-rule:nonzero;stroke:none;stroke-width:0.352777"
     id="path2588-6-2"
     clip-path="url(#clipPath3382)"
     transform="translate(10.300261,-30.517952)" /><path
     d="M 0,0 -0.003,-0.003 -3.055,-1.08 -4.107,-4.107 -4.108,-4.108 -5.68,-7.899 3.79,1.571 Z"
     style="display:inline;stroke-width:0.277091;fill:#ffff00;fill-opacity:1;fill-rule:nonzero;stroke:none"
     id="path2592-8-1"
     transform="matrix(1.2731459,0,0,-1.2731459,95.304615,46.276514)" /><path
     d="M 0,0 3.79,1.571 6.846,2.649 7.899,5.68 9.47,9.47 Z"
     style="display:inline;stroke-width:0.277091;fill:#ffff00;fill-opacity:1;fill-rule:nonzero;stroke:none"
     id="path2604-7-5"
     transform="matrix(1.2731459,0,0,-1.2731459,74.958543,43.217573)" /></svg>
