<?xml version="1.0" encoding="UTF-8" standalone="no"?>
<svg
   id="Capa_1"
   viewBox="0 0 300 226.75"
   version="1.1"
   sodipodi:docname="logo_joyas_blanco.svg"
   inkscape:version="1.2.1 (9c6d41e410, 2022-07-14)"
   xmlns:inkscape="http://www.inkscape.org/namespaces/inkscape"
   xmlns:sodipodi="http://sodipodi.sourceforge.net/DTD/sodipodi-0.dtd"
   xmlns="http://www.w3.org/2000/svg"
   xmlns:svg="http://www.w3.org/2000/svg">
  <sodipodi:namedview
     id="namedview91"
     pagecolor="#ffffff"
     bordercolor="#000000"
     borderopacity="0.25"
     inkscape:showpageshadow="2"
     inkscape:pageopacity="0.0"
     inkscape:pagecheckerboard="0"
     inkscape:deskcolor="#d1d1d1"
     showgrid="false"
     inkscape:zoom="3.7662624"
     inkscape:cx="144.04201"
     inkscape:cy="113.10948"
     inkscape:window-width="1920"
     inkscape:window-height="1009"
     inkscape:window-x="1072"
     inkscape:window-y="410"
     inkscape:window-maximized="1"
     inkscape:current-layer="Capa_1" />
  <defs
     id="defs4">
    <style
       id="style2">.cls-1{fill:#004e59;}.cls-2{fill:#ffad5f;}.cls-3{fill:#ff6b00;}.cls-4{fill:#00abc8;}.cls-5{fill:#00758d;}.cls-6{fill:#00bed6;}.cls-7{fill:#5fd0df;}.cls-8{fill:#ff5100;}.cls-9{fill:#434142;}.cls-10{fill:#ff9015;}.cls-11{fill:#673918;}</style>
  </defs>
  <path
     class="cls-9"
     d="m125.51,137.7c0,16.72-13.41,29.56-31.14,29.56s-31.13-12.75-31.13-29.56,13.41-29.4,31.13-29.4,31.14,12.58,31.14,29.4m-48.86,0c0,10.18,8.2,18.13,17.89,18.13s17.56-7.95,17.56-18.13-7.87-17.97-17.56-17.97-17.89,7.78-17.89,17.97"
     id="path6"
     style="fill:#ffffff" />
  <polygon
     class="cls-9"
     points="158.44 166.69 145.36 166.69 145.36 148.3 123.91 108.71 137.08 108.71 151.9 134.72 166.39 108.71 179.56 108.71 158.44 147.97 158.44 166.69"
     id="polygon8"
     style="fill:#ffffff" />
  <path
     class="cls-9"
     d="m192.12,155.42l-4.55,11.26h-13.5l25.18-57.97h13.5l24.76,57.97h-14l-4.55-11.26h-26.84Zm13.51-33.04l-9.19,22.52h18.3l-9.11-22.52Z"
     id="path10"
     style="fill:#ffffff" />
  <path
     class="cls-9"
     d="m289.26,114.43l-5.05,10.84c-6.13-3.64-13.41-5.96-18.05-5.96-4.39,0-7.37,1.57-7.37,4.72,0,10.68,30.89,4.72,30.81,25.59,0,11.35-9.86,17.47-22.69,17.47-9.53,0-19.05-3.64-25.59-9.19l5.21-10.68c5.97,5.3,14.41,8.69,20.54,8.69,5.38,0,8.61-1.98,8.61-5.54,0-10.94-30.89-4.55-30.89-25.09,0-10.52,9.03-17.14,22.45-17.14,8.11,0,16.23,2.49,22.03,6.3"
     id="path12"
     style="fill:#ffffff" />
  <path
     class="cls-9"
     d="m52.43,145.78c0,13.98-8.23,21.91-21.61,21.91-8.33,0-15.26-3.67-20.42-10.01l5.56-8.91c4.55,4.96,10.01,7.63,14.77,7.63,6.24,0,9.91-3.86,9.91-11v-38.79h-23.98v-10.51h35.78v49.7Z"
     id="path14"
     style="fill:#ffffff" />
  <path
     class="cls-8"
     d="m30.3,202.99c-1.02,1.02-2.19,1.81-3.53,2.37-1.34.56-2.74.84-4.22.84s-2.87-.28-4.21-.84c-1.34-.56-2.52-1.35-3.53-2.37-1.05-1.04-1.84-2.24-2.39-3.57-.55-1.34-.83-2.75-.83-4.22s.28-2.84.83-4.18c.55-1.34,1.34-2.53,2.39-3.57,1.02-1.02,2.19-1.81,3.53-2.37,1.34-.56,2.74-.84,4.21-.84s2.88.28,4.22.84c1.34.56,2.51,1.35,3.53,2.37.19.19.32.34.4.44v-10.72h2.81v18.03c0,1.47-.27,2.88-.82,4.22-.55,1.33-1.34,2.53-2.39,3.57m-7.75-15.94c-1.12,0-2.18.21-3.17.65-.99.42-1.85,1-2.59,1.74-.73.74-1.31,1.6-1.74,2.59-.43.99-.65,2.05-.65,3.17s.22,2.18.65,3.19c.43,1.01,1.01,1.88,1.74,2.61.74.73,1.6,1.32,2.59,1.74.99.43,2.05.65,3.17.65s2.18-.22,3.17-.65c.99-.42,1.86-1.01,2.59-1.74.73-.74,1.32-1.61,1.75-2.61.43-1,.64-2.06.64-3.19s-.21-2.18-.64-3.17c-.43-.99-1.01-1.85-1.75-2.59-.73-.74-1.6-1.32-2.59-1.74-.99-.43-2.05-.65-3.17-.65"
     id="path16"
     style="fill:#ffffff" />
  <path
     class="cls-8"
     d="m40.94,195.32c0,1.13.22,2.18.66,3.15.45.98,1.03,1.83,1.77,2.54.74.73,1.59,1.31,2.57,1.73.98.43,2.03.65,3.15.65,1.52,0,2.92-.38,4.17-1.15,1.26-.76,2.24-1.77,2.93-3.03h3.14c-.56,1.42-1.39,2.68-2.49,3.77-1.04,1.02-2.23,1.81-3.55,2.37-1.32.56-2.72.84-4.19.84s-2.88-.28-4.22-.84c-1.34-.56-2.51-1.35-3.53-2.37-1.04-1.04-1.84-2.23-2.39-3.55-.55-1.33-.82-2.72-.82-4.2s.27-2.87.82-4.21c.55-1.34,1.34-2.52,2.39-3.53,1.02-1.04,2.19-1.85,3.53-2.41,1.34-.56,2.74-.84,4.22-.84s2.87.28,4.19.84c1.33.56,2.51,1.37,3.55,2.41,1.05,1.01,1.84,2.2,2.39,3.57.55,1.37.83,2.79.83,4.25h-19.11Zm8.15-8.27c-.88,0-1.73.13-2.53.4-.8.27-1.54.65-2.21,1.12-.67.48-1.26,1.06-1.76,1.73-.51.67-.91,1.4-1.21,2.21h15.38c-.59-1.61-1.57-2.92-2.95-3.94-1.38-1.02-2.95-1.52-4.72-1.52"
     id="path18"
     style="fill:#ffffff" />
  <path
     class="cls-8"
     d="m89.84,206.2c-1.44-.05-2.78-.28-3.99-.68-1.22-.4-2.27-.97-3.15-1.73-.88-.75-1.57-1.68-2.07-2.79-.49-1.11-.75-2.4-.78-3.87h2.81c.18,2.22.93,3.82,2.23,4.8,1.3.98,2.95,1.47,4.96,1.47.81,0,1.59-.11,2.35-.3.76-.2,1.43-.5,2-.9.58-.41,1.04-.91,1.41-1.55.36-.63.54-1.37.54-2.23,0-.99-.22-1.81-.66-2.45-.44-.64-1.02-1.18-1.75-1.63-.73-.44-1.55-.82-2.47-1.13-.93-.3-1.87-.62-2.82-.94-.95-.32-1.88-.67-2.81-1.04-.92-.38-1.75-.85-2.47-1.43-.72-.57-1.31-1.29-1.74-2.15-.44-.85-.67-1.91-.67-3.17s.25-2.43.74-3.45c.5-1.02,1.15-1.88,1.97-2.6.82-.7,1.76-1.25,2.83-1.62,1.07-.37,2.18-.56,3.33-.56,1.07,0,2.11.17,3.11.52,1.01.35,1.89.83,2.67,1.44.78.62,1.4,1.38,1.86,2.27.47.9.71,1.88.71,2.95h-2.81c-.06-.75-.25-1.4-.59-1.95-.33-.55-.76-1-1.28-1.37-.52-.36-1.1-.62-1.75-.8-.64-.18-1.28-.26-1.93-.26-.83,0-1.62.12-2.35.38-.73.25-1.38.61-1.93,1.07-.55.45-.98,1.02-1.31,1.7-.32.68-.48,1.44-.48,2.27,0,.91.21,1.66.64,2.25.43.59.99,1.09,1.69,1.51.7.41,1.49.77,2.37,1.06.89.3,1.8.59,2.73.88.93.3,1.85.63,2.75,1,.9.38,1.71.86,2.43,1.45,1.84,1.51,2.77,3.43,2.77,5.78,0,1.29-.26,2.42-.79,3.39-.53.98-1.22,1.79-2.08,2.43-.88.64-1.85,1.13-2.93,1.46-1.09.33-2.19.5-3.32.5"
     id="path20"
     style="fill:#ffffff" />
  <path
     class="cls-8"
     d="m120.71,187.46c1.04,1.04,1.84,2.23,2.39,3.57.55,1.34.83,2.74.83,4.21v10.04h-2.81v-3.01c-.54.75-1.13,1.38-1.77,1.87-.65.5-1.32.9-2.03,1.21-.71.3-1.43.52-2.18.66-.75.14-1.48.2-2.17.2-1.47,0-2.88-.28-4.22-.84-1.34-.56-2.51-1.35-3.53-2.37-1.04-1.04-1.84-2.24-2.39-3.57-.55-1.34-.82-2.73-.82-4.18s.27-2.87.82-4.21c.55-1.34,1.34-2.53,2.39-3.57,1.02-1.02,2.19-1.81,3.53-2.37,1.34-.56,2.74-.84,4.22-.84s2.87.28,4.21.84c1.34.56,2.52,1.35,3.53,2.37m-7.74,15.94c1.12,0,2.18-.22,3.17-.65.98-.42,1.85-1.01,2.59-1.75.74-.73,1.32-1.6,1.75-2.59.43-.99.65-2.05.65-3.18s-.22-2.18-.65-3.19c-.43-1.01-1.01-1.87-1.75-2.61-.73-.74-1.6-1.32-2.59-1.74-.99-.43-2.05-.65-3.17-.65s-2.18.21-3.17.65c-.99.42-1.86,1-2.59,1.74-.73.74-1.32,1.6-1.75,2.61-.43,1.01-.64,2.07-.64,3.19s.21,2.18.64,3.18c.43.99,1.01,1.85,1.75,2.59.73.74,1.6,1.33,2.59,1.75.99.43,2.05.65,3.17.65"
     id="path22"
     style="fill:#ffffff" />
  <path
     class="cls-8"
     d="m145.32,186.77c.86.86,1.51,1.83,1.97,2.93.45,1.1.68,2.25.68,3.45v12.12h-2.81v-12.12c0-.86-.17-1.66-.5-2.41-.34-.75-.78-1.4-1.34-1.96-.56-.57-1.21-1.01-1.97-1.33-.74-.32-1.55-.48-2.41-.48s-1.65.16-2.4.48c-.75.32-1.41.76-1.97,1.33-.56.56-1.01,1.21-1.32,1.96-.33.75-.48,1.55-.48,2.41v12.12h-2.81v-20.07h2.33l.48,1.81c.85-.94,1.81-1.65,2.85-2.13,1.04-.48,2.15-.72,3.33-.72s2.36.22,3.45.66c1.1.44,2.07,1.09,2.93,1.94"
     id="path24"
     style="fill:#ffffff" />
  <path
     class="cls-8"
     d="m183.58,199.5c0-1.5-.47-2.72-1.4-3.65-1.02-.94-2.44-1.44-4.26-1.52h-7.34v10.96h-2.81v-28.1h9.8c1.2,0,2.33.17,3.37.5,1.05.34,1.97.82,2.77,1.47.81.64,1.46,1.47,1.97,2.48.21.48.39,1.03.52,1.65.13.61.2,1.45.2,2.49s-.07,1.94-.2,2.51c-.13.58-.31,1.1-.52,1.58-.51,1.02-1.16,1.85-1.97,2.49-.13.11-.26.2-.38.3-.12.09-.25.18-.38.26.22.13.42.27.6.42.18.15.37.3.56.46,1.23,1.21,1.97,2.68,2.21,4.42.03.22.05.43.06.65.02.21.02.42.02.64v5.78h-2.81v-5.78Zm-1.64-9.35c.29-.27.56-.61.8-1.04.22-.38.41-.83.58-1.36.18-.54.26-1.19.26-1.97,0-1.15-.14-2.07-.42-2.75-.28-.68-.69-1.24-1.22-1.66-1.13-.91-2.59-1.37-4.37-1.37h-6.99v11.52h6.99c1.79,0,3.25-.46,4.37-1.37"
     id="path26"
     style="fill:#ffffff" />
  <path
     class="cls-8"
     d="m200.65,206.2c-1.47,0-2.87-.28-4.2-.84-1.32-.56-2.5-1.35-3.55-2.37-1.02-1.04-1.81-2.24-2.36-3.57-.57-1.34-.85-2.73-.85-4.18s.28-2.87.85-4.21c.56-1.34,1.35-2.53,2.36-3.57,1.05-1.02,2.23-1.81,3.55-2.37,1.33-.56,2.72-.84,4.2-.84s2.87.28,4.21.84c1.34.56,2.53,1.35,3.58,2.37,1.01,1.04,1.8,2.23,2.36,3.57.57,1.34.85,2.74.85,4.21s-.28,2.85-.85,4.18c-.56,1.33-1.35,2.53-2.36,3.57-1.05,1.02-2.24,1.81-3.58,2.37-1.34.56-2.74.84-4.21.84m0-19.15c-1.12,0-2.18.21-3.17.65-.99.42-1.86,1-2.59,1.74-.73.74-1.32,1.6-1.75,2.61-.43,1.01-.64,2.07-.64,3.19s.21,2.18.64,3.18c.43.99,1.01,1.85,1.75,2.59.73.73,1.6,1.32,2.59,1.74.99.43,2.05.65,3.17.65s2.18-.22,3.17-.65c.98-.42,1.86-1.01,2.61-1.74.74-.74,1.34-1.6,1.77-2.59.43-.99.64-2.05.64-3.18s-.21-2.18-.64-3.19c-.43-1.01-1.02-1.87-1.77-2.61-.75-.74-1.63-1.32-2.61-1.74-.99-.43-2.05-.65-3.17-.65"
     id="path28"
     style="fill:#ffffff" />
  <path
     class="cls-8"
     d="m235.18,187.46c1.04,1.04,1.84,2.23,2.39,3.57.55,1.34.82,2.74.82,4.21v18.64h-2.81v-11.33c-.08.12-.21.26-.4.45-1.02,1.02-2.19,1.81-3.53,2.37-1.34.56-2.74.84-4.22.84s-2.87-.28-4.21-.84c-1.34-.56-2.52-1.35-3.53-2.37-1.04-1.04-1.84-2.24-2.39-3.57-.55-1.34-.83-2.73-.83-4.18s.28-2.87.83-4.21c.55-1.34,1.34-2.53,2.39-3.57,1.02-1.02,2.19-1.81,3.53-2.37,1.34-.56,2.74-.84,4.21-.84s2.88.28,4.22.84c1.34.56,2.51,1.35,3.53,2.37m-7.75,15.94c1.12,0,2.18-.22,3.17-.65.99-.42,1.86-1.01,2.59-1.75.73-.73,1.32-1.6,1.75-2.59.43-.99.64-2.05.64-3.18s-.21-2.18-.64-3.19c-.43-1.01-1.01-1.87-1.75-2.61-.73-.74-1.6-1.32-2.59-1.74-.99-.43-2.05-.65-3.17-.65s-2.18.21-3.17.65c-.98.42-1.85,1-2.59,1.74-.74.74-1.32,1.6-1.75,2.61-.43,1.01-.64,2.07-.64,3.19s.21,2.18.64,3.18c.43.99,1.01,1.85,1.75,2.59.73.74,1.6,1.33,2.59,1.75.99.43,2.05.65,3.17.65"
     id="path30"
     style="fill:#ffffff" />
  <path
     class="cls-8"
     d="m245.85,203.6c-.86-.86-1.51-1.83-1.97-2.94-.45-1.09-.68-2.24-.68-3.45v-12h2.81v12c0,.86.17,1.66.5,2.41.33.75.78,1.4,1.35,1.96.56.57,1.21,1.01,1.96,1.33.75.32,1.55.48,2.41.48s1.66-.16,2.41-.48c.75-.32,1.41-.76,1.97-1.33.56-.56,1.01-1.21,1.34-1.96.33-.75.5-1.55.5-2.41v-12h2.81v12c0,1.21-.23,2.36-.68,3.45-.45,1.1-1.11,2.08-1.96,2.94-.86.85-1.84,1.5-2.93,1.94-1.09.44-2.24.66-3.45.66s-2.36-.21-3.45-.66c-1.1-.44-2.07-1.09-2.93-1.94"
     id="path32"
     style="fill:#ffffff" />
  <path
     class="cls-8"
     d="m269.3,195.32c0,1.13.22,2.18.66,3.15.44.98,1.03,1.83,1.77,2.54.73.73,1.59,1.31,2.56,1.73.98.43,2.03.65,3.15.65,1.53,0,2.92-.38,4.18-1.15,1.26-.76,2.24-1.77,2.93-3.03h3.14c-.57,1.42-1.39,2.68-2.49,3.77-1.04,1.02-2.23,1.81-3.55,2.37-1.33.56-2.72.84-4.2.84s-2.87-.28-4.21-.84c-1.34-.56-2.52-1.35-3.53-2.37-1.04-1.04-1.84-2.23-2.39-3.55-.55-1.33-.83-2.72-.83-4.2s.28-2.87.83-4.21c.55-1.34,1.34-2.52,2.39-3.53,1.02-1.04,2.19-1.85,3.53-2.41,1.34-.56,2.74-.84,4.21-.84s2.87.28,4.2.84c1.32.56,2.51,1.37,3.55,2.41,1.04,1.01,1.84,2.2,2.39,3.57.55,1.37.82,2.79.82,4.25h-19.11Zm8.15-8.27c-.88,0-1.72.13-2.53.4-.8.27-1.53.65-2.2,1.12-.67.48-1.26,1.06-1.76,1.73-.51.67-.91,1.4-1.21,2.21h15.38c-.59-1.61-1.57-2.92-2.95-3.94-1.38-1.02-2.95-1.52-4.72-1.52"
     id="path34"
     style="fill:#ffffff" />
  <polygon
     class="cls-10"
     points="149.95 48.28 142.89 45.32 140 38.23 142.96 31.17 150.05 28.27 157.11 31.24 160.01 38.32 157.04 45.39 149.95 48.28"
     id="polygon36"
     style="fill:#ffffff" />
  <polygon
     class="cls-11"
     points="145.78 53.51 142.89 45.32 134.76 42.49 124.59 38.28 150 63.68 145.78 53.51"
     id="polygon38"
     style="fill:#ffffff" />
  <polygon
     class="cls-3"
     points="175.4 38.24 165.24 34.03 157.1 31.2 160 38.24 160.01 38.24 157.04 45.35 165.24 42.46 165.22 42.44 165.24 42.46 175.4 38.24"
     id="polygon40"
     style="fill:#ffffff" />
  <polygon
     class="cls-3"
     points="157.04 45.39 150.01 48.29 150 48.28 142.9 45.32 145.78 53.51 150 63.68 154.22 53.52 157.04 45.39"
     id="polygon42"
     style="fill:#ffffff" />
  <polygon
     class="cls-10"
     points="150 12.88 154.21 23.04 157.1 31.24 165.24 34.06 175.4 38.28 150 12.88"
     id="polygon44"
     style="fill:#ffffff" />
  <polygon
     class="cls-10"
     points="165.24 42.49 165.23 42.5 157.04 45.39 154.22 53.51 154.21 53.51 150 63.68 175.4 38.28 165.24 42.49"
     id="polygon46"
     style="fill:#ffffff" />
  <polygon
     class="cls-3"
     points="142.96 31.17 134.77 34.06 124.59 38.28 134.77 42.49 142.89 45.32 140 38.28 142.96 31.17"
     id="polygon48"
     style="fill:#ffffff" />
  <polygon
     class="cls-2"
     points="154.21 23.04 150 12.88 145.79 23.04 142.96 31.17 150 28.27 157.11 31.23 154.21 23.04"
     id="polygon50"
     style="fill:#ffffff" />
  <polygon
     class="cls-8"
     points="124.59 38.28 134.76 34.06 142.96 31.17 145.78 23.04 150 12.88 124.59 38.28"
     id="polygon52"
     style="fill:#ffffff" />
  <polygon
     class="cls-6"
     points="179.24 73.32 175.02 71.55 173.28 67.31 175.06 63.09 179.3 61.35 183.52 63.12 185.25 67.36 183.48 71.59 179.24 73.32"
     id="polygon54"
     style="fill:#ffffff" />
  <polygon
     class="cls-1"
     points="176.75 76.45 175.02 71.55 170.15 69.86 164.07 67.34 179.27 82.53 176.75 76.45"
     id="polygon56"
     style="fill:#ffffff" />
  <polygon
     class="cls-4"
     points="194.46 67.31 188.38 64.79 183.52 63.11 185.25 67.31 185.25 67.31 183.48 71.57 188.38 69.84 188.37 69.83 188.38 69.84 194.46 67.31"
     id="polygon58"
     style="fill:#ffffff" />
  <polygon
     class="cls-4"
     points="183.48 71.59 179.27 73.32 179.27 73.32 175.02 71.55 176.75 76.45 179.27 82.53 181.79 76.45 183.48 71.59"
     id="polygon60"
     style="fill:#ffffff" />
  <polygon
     class="cls-6"
     points="179.27 52.14 181.79 58.22 183.52 63.12 188.38 64.81 194.46 67.34 179.27 52.14"
     id="polygon62"
     style="fill:#ffffff" />
  <polygon
     class="cls-6"
     points="188.38 69.86 188.37 69.86 183.47 71.59 181.79 76.45 179.27 82.53 194.46 67.34 188.38 69.86"
     id="polygon64"
     style="fill:#ffffff" />
  <polygon
     class="cls-4"
     points="175.06 63.09 170.15 64.82 164.07 67.34 170.15 69.86 175.01 71.55 173.28 67.34 175.06 63.09"
     id="polygon66"
     style="fill:#ffffff" />
  <polygon
     class="cls-7"
     points="181.79 58.23 179.27 52.14 176.75 58.23 175.06 63.09 179.26 61.35 183.52 63.13 181.79 58.23"
     id="polygon68"
     style="fill:#ffffff" />
  <polygon
     class="cls-5"
     points="164.07 67.34 170.15 64.82 175.06 63.09 176.75 58.22 179.27 52.14 164.07 67.34"
     id="polygon70"
     style="fill:#ffffff" />
  <polygon
     class="cls-6"
     points="120.71 73.32 116.48 71.55 114.75 67.31 116.52 63.09 120.76 61.35 124.98 63.12 126.72 67.36 124.94 71.59 120.71 73.32"
     id="polygon72"
     style="fill:#ffffff" />
  <polygon
     class="cls-1"
     points="118.21 76.45 116.48 71.55 111.62 69.86 105.54 67.34 120.73 82.53 118.21 76.45"
     id="polygon74"
     style="fill:#ffffff" />
  <polygon
     class="cls-4"
     points="135.93 67.31 129.85 64.79 124.98 63.11 126.71 67.31 126.72 67.31 124.94 71.57 129.85 69.84 129.84 69.83 129.85 69.84 135.93 67.31"
     id="polygon76"
     style="fill:#ffffff" />
  <polygon
     class="cls-4"
     points="124.94 71.59 120.74 73.32 120.73 73.32 116.48 71.55 118.21 76.45 120.73 82.53 123.26 76.45 124.94 71.59"
     id="polygon78"
     style="fill:#ffffff" />
  <polygon
     class="cls-6"
     points="120.73 52.14 123.26 58.22 124.98 63.12 129.85 64.81 135.93 67.34 120.73 52.14"
     id="polygon80"
     style="fill:#ffffff" />
  <polygon
     class="cls-6"
     points="129.85 69.86 129.84 69.86 124.94 71.59 123.25 76.45 120.73 82.53 135.93 67.34 129.85 69.86"
     id="polygon82"
     style="fill:#ffffff" />
  <polygon
     class="cls-4"
     points="116.52 63.09 111.62 64.82 105.54 67.34 111.62 69.86 116.48 71.55 114.75 67.34 116.52 63.09"
     id="polygon84"
     style="fill:#ffffff" />
  <polygon
     class="cls-7"
     points="123.26 58.23 120.73 52.14 118.21 58.23 116.52 63.09 120.73 61.35 124.98 63.13 123.26 58.23"
     id="polygon86"
     style="fill:#ffffff" />
  <polygon
     class="cls-5"
     points="105.54 67.34 111.62 64.82 116.52 63.09 118.21 58.22 120.73 52.14 105.54 67.34"
     id="polygon88"
     style="fill:#ffffff" />
</svg>
